<svg id="sup_2_again" data-name="sup 2 again" xmlns="http://www.w3.org/2000/svg" viewBox="0 0 1319.93 1372"><defs><style>.cls-1{fill:#2267ad;opacity:0.11;}.cls-2{fill:#d4e1ef;}.cls-3{fill:#fcfcfc;}.cls-4{fill:#fefefe;}</style></defs><title>5</title><path class="cls-1" d="M0,927.84V810.72H100.32a1.68,1.68,0,0,0,.76.15c0.26,0,.52,0,0.77,0,40.64,0,104.62,0,158.44-.09l97.55-.09c-3.35,12.23-6.3,23.47-11.79,40.14-4.4,10.93-12.72,32-14.49,35.6q-2.32,4.71-4.93,9.26t-5.45,9q-4.44,6.9-9.4,13.4t-10.37,12.66c-1.2,1.37-2.44,2.7-3.68,4s-2.5,2.65-3.72,4c-1.59,1.75-3.25,3.42-4.95,5.06s-3.41,3.25-5.13,4.87q-4.21,4-8.6,7.73t-8.93,7.36q-6.39,5.08-13,9.84T240,982.82c-3.85,2.55-7.75,5-11.67,7.46s-7.87,4.83-11.82,7.23c-5.07,3.09-10.09,6.27-15,9.62s-9.69,6.85-14.31,10.6q-2.42,2-4.76,4t-4.6,4.21q-4.46,4.22-8.48,8.81a108.81,108.81,0,0,0-7.5,9.65,84.71,84.71,0,0,0-8.58,15.58,70.08,70.08,0,0,0-4.72,17.13c-0.29,2-.58,4.11-0.75,6.18a38,38,0,0,0-.07,6.23c0.12,1.53.19,3.06,0.27,4.6s0.17,3.07.33,4.6c0.22,2.15.44,4.29,0.7,6.43s0.58,4.27,1,6.39c0.86,4.2,2,8.33,3.2,12.43s2.62,8.14,4,12.19l2.26,6.52,2.26,6.52c1.71,4.93,3.47,9.84,5.22,14.76s3.48,9.84,5.12,14.79a150.53,150.53,0,0,1,4,14.86c1.11,5,2,10.07,2.77,15.16a84.59,84.59,0,0,1,.84,9c0.13,3,.12,6,0,9a58.77,58.77,0,0,1-.71,7.21c-0.37,2.39-.85,4.76-1.34,7.13a97.9,97.9,0,0,1-4.13,14.16,108.85,108.85,0,0,1-6.11,13.42,113.88,113.88,0,0,1-6.33,10.39q-3.43,5-7.37,9.68c-0.79.93-1.58,1.86-2.34,2.81s-1.52,1.91-2.22,2.91a7.87,7.87,0,0,1-1.18,1.27,17,17,0,0,0-1.25,1.19c-1.37,1.53-2.79,3-4.23,4.5s-2.91,2.92-4.38,4.36c-2.26,2.21-4.6,4.33-7,6.4s-4.82,4.08-7.28,6.06q-5.79,4.67-11.76,9.11c-4,2.95-8,5.79-12.2,8.5q-5.08,3.31-10.31,6.36t-10.6,5.86q-9.13,4.79-18.62,8.73t-19.3,7.08q-8.15,2.61-16.46,4.59T8,1371.9c-1.16.19-2.33,0.27-3.5,0.35s-2.35.15-3.51,0.32H0.24a1.89,1.89,0,0,1-.15-0.82c0-.28,0-0.56,0-0.83q0-110.35,0-220.71t0-220.71c0-.27,0-0.55,0-0.83A1.89,1.89,0,0,0,0,927.84Z" transform="translate(0 -0.57)"/><path class="cls-2" d="M348.91,818.2H348.7" transform="translate(0 -0.57)"/><path class="cls-2" d="M348.7,816.75h0.2" transform="translate(0 -0.57)"/><path class="cls-3" d="M1317.06,969.62c0.94,5,.47,10.11.55,15.17C1316.25,979.77,1317.29,974.67,1317.06,969.62Z" transform="translate(0 -0.57)"/><path class="cls-3" d="M1316.32,956.09c0.93,2.51.53,5.11,0.54,7.69C1315.64,961.29,1316.46,958.66,1316.32,956.09Z" transform="translate(0 -0.57)"/><path class="cls-4" d="M148.45,1099c-1-2.23-.61-4.57-0.56-6.88C149.13,1094.31,148.26,1096.69,148.45,1099Z" transform="translate(0 -0.57)"/><path class="cls-4" d="M179.93,1218.3c-0.75-1.76-.51-3.61-0.52-5.44C180.56,1214.58,179.8,1216.48,179.93,1218.3Z" transform="translate(0 -0.57)"/><path class="cls-3" d="M1317.82,992.09c0.8,1.49.56,3.1,0.52,4.69C1317.24,995.32,1317.91,993.66,1317.82,992.09Z" transform="translate(0 -0.57)"/><path class="cls-4" d="M147.89,1085.28c-0.06-1.57-.24-3.14.57-4.6C148.31,1082.22,149,1083.87,147.89,1085.28Z" transform="translate(0 -0.57)"/><path class="cls-3" d="M1315.57,946.36a6.19,6.19,0,0,1,.54,3.93C1315.05,949.1,1315.63,947.68,1315.57,946.36Z" transform="translate(0 -0.57)"/><path class="cls-3" d="M1318.56,1001.15a6.29,6.29,0,0,1,.56,3.88C1318.05,1003.87,1318.63,1002.46,1318.56,1001.15Z" transform="translate(0 -0.57)"/><path class="cls-3" d="M1319.3,1007.93a6.15,6.15,0,0,1,.58,3.86C1318.8,1010.63,1319.39,1009.23,1319.3,1007.93Z" transform="translate(0 -0.57)"/><path class="cls-4" d="M179.4,1232.28a6.78,6.78,0,0,1,.52-4C179.86,1229.65,180.44,1231.07,179.4,1232.28Z" transform="translate(0 -0.57)"/><path class="cls-1" d="M579.85,0.66c1.35,8.09,2.73,16.18,4,24.28,0.54,3.4.92,6.83,1.36,10.24,0.58,1.53-.17,3.2.54,4.72L586,45.68c0.69,3.57-.29,7.22.54,10.77a21,21,0,0,0,0,6.18c-0.84,3.8.16,7.69-.54,11.5l-0.19,5.13c-0.79,1.47.06,3.14-.57,4.62L585,86.66c-0.65,1.26,0,2.7-.54,4a299.45,299.45,0,0,1-12.65,56.2,321.56,321.56,0,0,1-30.2,64.77c-13.94,23-30.27,44.19-48.2,64.26a576.93,576.93,0,0,1-50.79,49.62c-21.8,19.07-45.6,35.59-68.41,53.37-24,18.73-46.23,39.36-64,64.31-14.8,20.72-25.32,43.25-28.44,68.78-2.57,21,.21,41.57,6,61.81,8.45,29.41,22.23,56.58,35.27,84.06,12,25.26,23.56,50.66,30.52,77.88,6.1,23.84,8.55,47.89,4.44,72.35a23.05,23.05,0,0,0-.15,2.61c-118,0-353.92.07-353.92,0.07H0S0.1,271.85,0,4.28C0,1.37.43,0.56,3.6,0.57Q291.72,0.72,579.85.66Z" transform="translate(0 -0.57)"/></svg>