<svg id="sup-iz-1.1" xmlns="http://www.w3.org/2000/svg" viewBox="0 0 837 513.75"><defs><style>.cls-1{fill:#2267ad;opacity:0.23;}</style></defs><title>1-left-2</title><path class="cls-1" d="M451.44,320.34a109.65,109.65,0,0,0-15.8,0c-1.51.57-3.18-.19-4.68,0.54-11.86.49-23,3.48-34,8.08-11.69,4.91-21.36,12.42-30,21.39-8.9,9.26-15.85,20-22.08,31.2-9.27,16.66-16.84,34.18-25.61,51.09-9.27,17.88-19.53,35.11-34,49.45-17.42,17.3-38.41,27.69-62.41,32.28a167.89,167.89,0,0,1-18.28,2.48c-1.54.56-3.22-.17-4.74,0.53H177.18c-2-.77-4.19.09-6.23-0.54l-4.25-.22c-1.27-.63-2.7,0-4-0.52a278.55,278.55,0,0,1-56.54-10.24A278.54,278.54,0,0,1,37.49,476c-9.92-6.05-19.17-13-28.55-19.79-2.8-2-4.91-5-8.28-6.26Q0.66,228.51.59,7.08c0-2.81.63-3.45,3.45-3.44Q415.6,3.74,827.16,3.7c1.36,8.5,3.25,16.89,4.62,25.4,1.46,9,2.31,18.11,3.76,27.13,0.54,1.29-.09,2.73.54,4l0.22,4.24c0.61,1.77-.22,3.68.54,5.43l0.2,5.06c0.67,2.81-.27,5.72.54,8.52v31.69c-0.8,2.54.13,5.2-.54,7.74l-0.21,5c-0.69,1.52,0,3.21-.54,4.75-2.76,25.76-7.28,51.16-15.9,75.67-9.37,26.65-22.7,51-41.2,72.56-18,21-39.9,36.51-64.79,47.9a189.67,189.67,0,0,1-55.61,15.44c-6.63.83-13.24,1.87-19.91,2.34-1.77.6-3.68-.23-5.43,0.54h-25c-2.55-.79-5.22.13-7.79-0.54l-5.79-.2c-1.26-.65-2.69,0-4-0.53a319.39,319.39,0,0,1-34.09-4.1c-12.7-2.22-25.28-5.23-37.77-8.47s-24.88-6.91-37.57-9.26c-7.63-1.41-15.39-2.12-23.09-3.15C456.14,320.1,453.73,321,451.44,320.34Z" transform="translate(-0.59 -3.63)"/></svg>