<svg id="inferior_naranja_2" data-name="inferior naranja 2" xmlns="http://www.w3.org/2000/svg" viewBox="0 0 465.94 1022.08"><defs><style>.cls-1{fill:#fe8b00;opacity:0.1;}</style></defs><title>2-bottom-3-top-orange-left</title><g id="Capa_9" data-name="Capa 9"><path class="cls-1" d="M0.66,1622.33" transform="translate(-0.66 -1200.02)"/><path class="cls-1" d="M464.73,1622.33q0.76,3,1.48,5.94c3.74,52-19.23,93-45.17,131-18.22,17.85-41.51,31.86-58.19,41.16-15.07,8.35-31.29,19.32-45.86,30.23-16.79,12.57-32.31,26.56-43.13,45.54-5.58,9.79-9.94,20.13-10.63,31.82-0.7,1.21,0,2.64-.54,3.87a62.42,62.42,0,0,0,0,11.3c0.54,1.56-.12,3.26.5,4.81,0.26,11.15,3.21,21.71,6.73,32,6.09,17.85,12.73,35.48,18.89,53.31a170.31,170.31,0,0,1,8.31,38.11c0.53,1.79-.2,3.7.49,5.47q0,4.59,0,9.18c-0.57,1.29,0,2.73-.48,4-2.74,24.6-12.95,45.46-28,63.91A246.49,246.49,0,0,1,187,2200a205.18,205.18,0,0,1-57.59,18.67c-1.73.29-3.44,0.62-5.17,0.94-1.16.58-2.5-.15-3.65,0.57l-11.11,1c-1.42.56-3-.2-4.37,0.53l-8.27.2a43.48,43.48,0,0,1-9.78,0l-8.86-.22c-1.21-.61-2.55,0-3.77-0.51l-4.77-.22c-1.15-.7-2.49,0-3.66-0.55-22.18-1.94-43.55-7.84-64.63-15.14L1,1622.33" transform="translate(-0.66 -1200.02)"/><path class="cls-1" d="M1,1622.33L0.66,1200a139.88,139.88,0,0,1,48.87,12,160.54,160.54,0,0,1,54.35,39.46c19.39,21.34,33.45,46.43,44.9,73.35,10.93,25.71,17.54,52.92,24.65,80,6,22.93,14.69,44.64,29.29,63a75.38,75.38,0,0,0,41.72,26.85c5.17,1.29,10.4,2.55,15.79,2.37,2.13,0.79,4.39-.1,6.53.53a158.72,158.72,0,0,0,19.71,0c2.13-.66,4.38.26,6.5-0.55l5.44-.22c1.46-.53,3,0.15,4.48-0.52l5.34-.21c1.69-.6,3.51.18,5.19-0.54l8.16-.21c2.62-.68,5.34.28,8-0.54h15.6c1.68,0.71,3.49-.06,5.19.53l4.68,0.22c1.19,0.63,2.54,0,3.75.53,18,2.88,34.8,9.23,49.3,21.36A127.27,127.27,0,0,1,436.53,1552a281,281,0,0,1,28.2,70.28" transform="translate(-0.66 -1200.02)"/></g></svg>