<svg id="pagina_3_button_left" data-name="pagina 3 button left" xmlns="http://www.w3.org/2000/svg" viewBox="0 0 470.11 903.59"><defs><style>.cls-1{opacity:0.1;}.cls-2{fill:#4c6ebe;}.cls-3{fill:#4b6ebe;}</style></defs><title>3-bottom-4-top-blue-left-diferent</title><g class="cls-1"><path class="cls-2" d="M258.51,2301.78a217,217,0,0,0,29.11,0c1.71-.61,3.56.22,5.26-0.54l5.63-.21c1.71-.61,3.55.23,5.24-0.54l5.65-.21c2.2-.64,4.51.28,6.69-0.54l7.82-.19c7.72-.38,15.45-0.37,23.17,0,15.87,0.74,30,5.63,43.77,10.62,11.64,4.22,17.46,6.33,24.91,10.73a107.32,107.32,0,0,1,34.36,32.5,110.86,110.86,0,0,1,13.07,27.5,136.51,136.51,0,0,1,6.62,52.3c-276.34-.22-463.34.08-466.28,0.08S0,2432.7,0,2429.64q0.14-212.35.08-424.7c8.3,1.88,16.67,3.33,24.82,6,30.32,9.81,55.59,27.58,76.41,52.07,20.53,24.14,34.94,52.08,46.13,81.91,8.1,21.6,13.36,44.08,19.7,66.23,5.15,18,12,35.27,22.3,50.89,8.22,12.45,18.18,22.35,30.24,29.13a85.77,85.77,0,0,0,21.2,8.14A89.41,89.41,0,0,0,258.51,2301.78Z" transform="translate(0 -2004.94)"/></g><g class="cls-1"><path class="cls-3" d="M88.64,2900.2c-27.81-8-58.89-23.37-58.89-23.37-9.95-4.9-19.4-10.67-29.12-16,0-141.32-.08-424-0.08-424l3.51-3.63,465.75-.08c-0.36,10.94-2.84,38.28-23.35,60.7a87.58,87.58,0,0,1-21.47,17c-27.69,15.64-43.17,4.69-69,16-4.44,1.94-32.14,14.07-40,41-9.38,32.15,16.55,61.32,19,64,8.4,18.42,21.87,55,17,101-9.15,86.41-75.57,134.93-87,143C265,2875.89,186.74,2928.42,88.64,2900.2Z" transform="translate(0 -2004.94)"/></g></svg>