<svg id="pag5_top_blue_right" data-name="pag5 top blue right" xmlns="http://www.w3.org/2000/svg" xmlns:xlink="http://www.w3.org/1999/xlink" viewBox="0 0 708.06 1015.15"><defs><style>.cls-1{opacity:0.15;fill:url(#Degradado_sin_nombre_25);}.cls-2{opacity:0.11;fill:url(#Degradado_sin_nombre_34);}</style><linearGradient id="Degradado_sin_nombre_25" x1="1550.24" y1="3788.82" x2="860.06" y2="3098.64" gradientUnits="userSpaceOnUse"><stop offset="0.21" stop-color="#fff"/><stop offset="1" stop-color="#5173c1"/></linearGradient><linearGradient id="Degradado_sin_nombre_34" x1="970.66" y1="4156.2" x2="1493.04" y2="3633.82" gradientUnits="userSpaceOnUse"><stop offset="0" stop-color="#fe8b00"/><stop offset="0.18" stop-color="#fe9d27"/><stop offset="0.57" stop-color="#ffcb8c"/><stop offset="1" stop-color="#fff"/></linearGradient></defs><title>bottom right</title><g id="Capa_18" data-name="Capa 18"><path class="cls-1" d="M747.33,3224.47c7.82-15.27,19.66-30.31,20.67-31.58a268.15,268.15,0,0,1,18.67-20.84c4.6-4.75,11.12-10.83,24.16-23,8-7.42,12-11.52,17.5-15.76,4.09-3.15,8.06-6.49,12-9.81a366.55,366.55,0,0,1,31.21-23.09,389.71,389.71,0,0,1,58.87-32.46,345.61,345.61,0,0,1,85.38-25.5c7.61-1.24,15.27-2,22.91-2.93,1.5-.55,3.16.17,4.65-0.5h0l5-.18h0c4.05-.72,8.2.42,12.23-0.7l17.62,0.23c1.48,0.58,3.1-.07,4.58.46,24.39,2.54,47.65,9.21,70.65,17a713.1,713.1,0,0,1,70.59,28.62q33.72,15.58,66.12,33.59c30.34,16.89,59.91,34.89,88.35,54.54,20.89,14.44,41.25,29.51,60.6,45.79,0.44,0.37.95,0.69,1.42,1a0.12,0.12,0,0,1,.05.1c0,9.37,0,28,0,28v1.66a0.13,0.13,0,0,1-.13.13l-0.26,36.94,0,612.49s0.1,0.27-1.1.75a413.06,413.06,0,0,1-63.2,14.13c-3.62.54-7.25,1-10.88,1.57-1.23.58-2.67-.15-3.88,0.55l-3.63.19c-1.24.52-2.66-.15-3.88,0.52l-3.61.18c-2,.6-4.21-0.21-6.24.51l-5.76.19a158.09,158.09,0,0,1-18.69,0l-13.3-.2c-1.25-.62-2.67,0-3.94-0.49l-5-.23c-1.27-.6-2.71,0-4-0.51a257,257,0,0,1-46.14-9,218.08,218.08,0,0,1-58.05-26.07c-7.18-4.59-13.74-9.95-20.43-15.16a165.91,165.91,0,0,1-17.09-15.74,229.75,229.75,0,0,1-33.82-45.16,300.18,300.18,0,0,1-19.49-41.72c-6.94-17.9-11.71-36.3-15.71-54.95-2.48-11.54-4.11-23.2-5.85-34.84a84.29,84.29,0,0,1-1.09-11.85c-0.59-1.42.2-3-.55-4.4l-0.2-4.12c-0.6-1.42.2-3-.55-4.4l-0.19-4.83c-0.6-1.43.18-3-.55-4.43l-0.18-3.38c-0.64-1.42.19-3-.57-4.41l-0.2-3.41c-0.55-1.19.13-2.54-.54-3.72-1.33-10.31-2.77-20.59-5-30.79-3.08-14.1-7.29-27.82-13.75-40.84a106.44,106.44,0,0,0-54-51.94c-13.16-5.92-27-9.38-41.13-12-10-1.84-20.2-3.29-30.38-4.19-9.51-.84-19-2-28.43-3.09a339.62,339.62,0,0,1-36.78-5.93c-15.58-3.59-30.9-8-45-15.35a124,124,0,0,1-36-28,173.26,173.26,0,0,1-16.25-21.65,208.48,208.48,0,0,1-20.58-40.82,204.43,204.43,0,0,1-12-70.73C732.75,3280.6,732.89,3252.69,747.33,3224.47Z" transform="translate(-732.66 -3038.11)"/></g><path class="cls-2" d="M1133.23,3753.64a42.19,42.19,0,0,0-.22-8.73c-0.6-1.79.19-3.72-.53-5.5l-0.22-4.25c-0.53-1.27.12-2.71-.53-4l-0.21-3.54c-0.57-1.25.15-2.68-.56-3.9l-1.7-17.85c-0.52-1.28.11-2.72-.53-4l-0.21-5c-0.65-2,.25-4.18-0.55-6.19v-19.8c0.76-1.76-.09-3.69.56-5.46a96.52,96.52,0,0,1,12.77-40.88,110.75,110.75,0,0,1,26.43-30.24c10.84-8.76,22.63-15.73,34.94-21.92A254.11,254.11,0,0,1,1278.5,3548c5.53-.85,11.12-1.3,16.68-1.94,1.52-.59,3.19.18,4.7-0.54h24.22c1.79,0.71,3.73-.06,5.53.53l5.84,0.2c1.23,0.71,2.66,0,3.91.56a263.27,263.27,0,0,1,67.53,18c11.57,4.87,22.67,10.72,33.74,16.61q0,234.19.07,468.38c0,2.81-.63,3.45-3.45,3.45q-284.81-.12-569.63-0.07l-0.13-6a99.81,99.81,0,0,1,0-14.95l0.2-5.83c0.74-1.49,0-3.15.53-4.66a140.11,140.11,0,0,1,8.5-37.54,161.4,161.4,0,0,1,22.43-40.83,181,181,0,0,1,21.43-23.59,220.47,220.47,0,0,1,31.84-24.12,273.21,273.21,0,0,1,31.48-17.09c18.43-8.59,37.61-15.18,57.07-21,18.6-5.57,36.52-12.8,52.75-23.5,14.52-9.57,26.34-21.86,33.13-38.23a79.53,79.53,0,0,0,5.59-22.19c0.69-1.24,0-2.66.55-3.92l0.21-5.76A35,35,0,0,0,1133.23,3753.64Z" transform="translate(-732.66 -3038.11)"/></svg>