<?xml version="1.0" encoding="UTF-8" standalone="no"?>
<svg
   xmlns:dc="http://purl.org/dc/elements/1.1/"
   xmlns:cc="http://creativecommons.org/ns#"
   xmlns:rdf="http://www.w3.org/1999/02/22-rdf-syntax-ns#"
   xmlns:svg="http://www.w3.org/2000/svg"
   xmlns="http://www.w3.org/2000/svg"
   xmlns:sodipodi="http://sodipodi.sourceforge.net/DTD/sodipodi-0.dtd"
   xmlns:inkscape="http://www.inkscape.org/namespaces/inkscape"
   width="763.06152pt"
   height="763.14648pt"
   viewBox="0 0 763.06152 763.14651"
   version="1.2"
   id="svg14"
   sodipodi:docname="close_blue.svg"
   inkscape:version="0.92.5 (2060ec1f9f, 2020-04-08)">
  <metadata
     id="metadata18">
    <rdf:RDF>
      <cc:Work
         rdf:about="">
        <dc:format>image/svg+xml</dc:format>
        <dc:type
           rdf:resource="http://purl.org/dc/dcmitype/StillImage" />
        <dc:title></dc:title>
      </cc:Work>
    </rdf:RDF>
  </metadata>
  <sodipodi:namedview
     pagecolor="#ffffff"
     bordercolor="#666666"
     borderopacity="1"
     objecttolerance="10"
     gridtolerance="10"
     guidetolerance="10"
     inkscape:pageopacity="0"
     inkscape:pageshadow="2"
     inkscape:window-width="960"
     inkscape:window-height="1016"
     id="namedview16"
     showgrid="false"
     inkscape:zoom="0.12291668"
     inkscape:cx="510.03516"
     inkscape:cy="204.77611"
     inkscape:window-x="960"
     inkscape:window-y="27"
     inkscape:window-maximized="0"
     inkscape:current-layer="svg14" />
  <defs
     id="defs5">
    <clipPath
       id="clip1">
      <path
         d="M 22,110 H 786 V 873.60937 H 22 Z m 0,0"
         id="path2"
         inkscape:connector-curvature="0" />
    </clipPath>
  </defs>
  <g
     id="surface1"
     transform="translate(-22.473633,-110.43555)">
    <g
       clip-path="url(#clip1)"
       id="g11"
       style="clip-rule:nonzero">
      <path
         style="fill:#002863;fill-opacity:1;fill-rule:nonzero;stroke:none"
         d="m 56.8125,873.58203 c -8.792969,0 -17.574219,-3.35156 -24.28125,-10.0625 -13.410156,-13.41016 -13.410156,-35.15234 0,-48.55859 L 726.91797,120.49609 c 13.40625,-13.41406 35.14062,-13.41406 48.55859,0 13.40625,13.40625 13.40625,35.15235 0,48.5625 L 81.089844,863.51953 c -6.703125,6.71094 -15.492188,10.0625 -24.277344,10.0625"
         id="path7"
         inkscape:connector-curvature="0" />
      <path
         style="fill:#002863;fill-opacity:1;fill-rule:nonzero;stroke:none"
         d="m 751.20312,873.58203 c -8.78906,0 -17.57812,-3.35156 -24.27734,-10.0625 L 32.535156,169.05859 c -13.40625,-13.41015 -13.40625,-35.15625 0,-48.5625 13.40625,-13.41406 35.152344,-13.41406 48.558594,0 l 694.38672,694.46485 c 13.40625,13.40625 13.40625,35.14843 0,48.55859 -6.70313,6.71094 -15.48828,10.0625 -24.27735,10.0625"
         id="path9"
         inkscape:connector-curvature="0" />
    </g>
  </g>
</svg>
