<?xml version="1.0" encoding="UTF-8"?>
<svg xmlns="http://www.w3.org/2000/svg" xmlns:xlink="http://www.w3.org/1999/xlink" width="1440pt" height="809.999993pt" viewBox="0 0 1440 809.999993" version="1.2">
<defs>
<clipPath id="clip1">
  <path d="M 232.820312 22.980469 L 1004.570312 22.980469 L 1004.570312 794.730469 L 232.820312 794.730469 Z M 232.820312 22.980469 "/>
</clipPath>
</defs>
<g id="surface1">
<g clip-path="url(#clip1)" clip-rule="nonzero">
<path style=" stroke:none;fill-rule:nonzero;fill:rgb(49.01886%,54.508972%,56.469727%);fill-opacity:1;" d="M 618.359375 22.753906 C 405.304688 22.753906 232.59375 195.46875 232.59375 408.523438 C 232.59375 621.578125 405.304688 794.289062 618.359375 794.289062 C 831.414062 794.289062 1004.128906 621.578125 1004.128906 408.523438 C 1004.128906 195.46875 831.414062 22.753906 618.359375 22.753906 Z M 428.589844 268.328125 L 808.128906 268.328125 C 810.351562 268.328125 812.511719 268.546875 814.652344 268.886719 L 618.359375 391.28125 L 422.074219 268.886719 C 424.203125 268.554688 426.371094 268.328125 428.589844 268.328125 Z M 849.457031 527.921875 C 849.457031 550.753906 830.957031 569.257812 808.121094 569.257812 L 428.585938 569.257812 C 405.753906 569.257812 387.25 550.753906 387.25 527.921875 L 387.25 309.664062 C 387.25 307.246094 387.503906 304.898438 387.894531 302.597656 L 606.007812 438.597656 C 606.273438 438.765625 606.5625 438.878906 606.835938 439.03125 C 607.121094 439.1875 607.414062 439.347656 607.707031 439.484375 C 609.253906 440.273438 610.835938 440.921875 612.457031 441.332031 C 612.625 441.378906 612.789062 441.414062 612.957031 441.453125 C 614.738281 441.875 616.539062 442.132812 618.339844 442.132812 C 618.347656 442.132812 618.355469 442.132812 618.359375 442.132812 C 618.367188 442.132812 618.375 442.132812 618.378906 442.132812 C 620.179688 442.132812 621.980469 441.875 623.769531 441.453125 C 623.929688 441.414062 624.097656 441.378906 624.261719 441.332031 C 625.882812 440.914062 627.480469 440.273438 629.019531 439.484375 C 629.304688 439.347656 629.605469 439.1875 629.894531 439.03125 C 630.167969 438.878906 630.453125 438.765625 630.714844 438.597656 L 848.804688 302.597656 C 849.21875 304.898438 849.464844 307.246094 849.464844 309.664062 L 849.464844 527.921875 Z M 849.457031 527.921875 "/>
</g>
</g>
</svg>
