<?xml version="1.0" encoding="UTF-8"?>
<svg xmlns="http://www.w3.org/2000/svg" xmlns:xlink="http://www.w3.org/1999/xlink" width="37.5pt" height="37.499999pt" viewBox="0 0 37.5 37.499999" version="1.2">
<defs>
<clipPath id="clip1">
  <path d="M 0 0 L 37.007812 0 L 37.007812 37.007812 L 0 37.007812 Z M 0 0 "/>
</clipPath>
</defs>
<g id="surface1">
<g clip-path="url(#clip1)" clip-rule="nonzero">
<path style=" stroke:none;fill-rule:nonzero;fill:rgb(100%,100%,100%);fill-opacity:1;" d="M 18.734375 -0.0117188 C 8.382812 -0.0117188 -0.0117188 8.382812 -0.0117188 18.734375 C -0.0117188 29.085938 8.382812 37.480469 18.734375 37.480469 C 29.085938 37.480469 37.480469 29.085938 37.480469 18.734375 C 37.480469 8.382812 29.085938 -0.0117188 18.734375 -0.0117188 Z M 9.511719 11.921875 L 27.953125 11.921875 C 28.0625 11.921875 28.167969 11.933594 28.273438 11.949219 L 18.734375 17.894531 L 9.195312 11.949219 C 9.300781 11.933594 9.40625 11.921875 9.511719 11.921875 Z M 29.964844 24.535156 C 29.964844 25.644531 29.0625 26.542969 27.953125 26.542969 L 9.511719 26.542969 C 8.402344 26.542969 7.503906 25.644531 7.503906 24.535156 L 7.503906 13.929688 C 7.503906 13.8125 7.515625 13.699219 7.535156 13.585938 L 18.132812 20.195312 C 18.148438 20.203125 18.160156 20.207031 18.171875 20.214844 C 18.1875 20.222656 18.203125 20.230469 18.214844 20.238281 C 18.292969 20.277344 18.367188 20.308594 18.445312 20.328125 C 18.453125 20.332031 18.464844 20.332031 18.472656 20.332031 C 18.558594 20.355469 18.644531 20.367188 18.734375 20.367188 C 18.824219 20.367188 18.910156 20.355469 18.996094 20.332031 C 19.003906 20.332031 19.011719 20.332031 19.019531 20.328125 C 19.097656 20.308594 19.175781 20.277344 19.25 20.238281 C 19.265625 20.230469 19.28125 20.222656 19.292969 20.214844 C 19.308594 20.207031 19.320312 20.203125 19.335938 20.195312 L 29.929688 13.585938 C 29.953125 13.699219 29.964844 13.8125 29.964844 13.929688 Z M 29.964844 24.535156 "/>
</g>
</g>
</svg>
