<?xml version="1.0" encoding="UTF-8"?>
<svg xmlns="http://www.w3.org/2000/svg" xmlns:xlink="http://www.w3.org/1999/xlink" width="1440pt" height="809.999993pt" viewBox="0 0 1440 809.999993" version="1.2">
<defs>
<clipPath id="clip1">
  <path d="M 197 27.417969 L 1217.671875 27.417969 L 1217.671875 763.636719 L 197 763.636719 Z M 197 27.417969 "/>
</clipPath>
<clipPath id="clip2">
  <path d="M 197 84 L 1217.671875 84 L 1217.671875 708 L 197 708 Z M 197 84 "/>
</clipPath>
<clipPath id="clip3">
  <path d="M 197 27.417969 L 708 27.417969 L 708 424 L 197 424 Z M 197 27.417969 "/>
</clipPath>
</defs>
<g id="surface1">
<g clip-path="url(#clip1)" clip-rule="nonzero">
<path style=" stroke:none;fill-rule:nonzero;fill:rgb(69.799805%,13.729858%,20.388794%);fill-opacity:1;" d="M 1201.683594 84.050781 C 1182.046875 50.328125 1145.914062 27.417969 1104.058594 27.417969 L 707.308594 27.417969 L 707.308594 84.050781 Z M 197.207031 593.742188 L 1217.414062 593.742188 L 1217.414062 650.375 L 197.207031 650.375 Z M 707.308594 367.210938 L 1217.414062 367.210938 L 1217.414062 423.84375 L 707.308594 423.84375 Z M 707.308594 253.949219 L 1217.414062 253.949219 L 1217.414062 310.582031 L 707.308594 310.582031 Z M 197.207031 480.476562 L 1217.414062 480.476562 L 1217.414062 537.109375 L 197.207031 537.109375 Z M 310.5625 763.636719 L 1104.058594 763.636719 C 1145.914062 763.636719 1182.046875 740.730469 1201.683594 707.003906 L 212.933594 707.003906 C 232.574219 740.730469 268.707031 763.636719 310.5625 763.636719 Z M 707.308594 140.683594 L 1217.414062 140.683594 L 1217.414062 197.316406 L 707.308594 197.316406 Z M 707.308594 140.683594 "/>
</g>
<g clip-path="url(#clip2)" clip-rule="nonzero">
<path style=" stroke:none;fill-rule:nonzero;fill:rgb(93.328857%,93.328857%,93.328857%);fill-opacity:1;" d="M 199.132812 669.601562 C 199.617188 672.234375 200.15625 674.867188 200.804688 677.445312 C 201.542969 680.304688 202.449219 683.050781 203.414062 685.824219 C 205.9375 693.160156 208.996094 700.238281 212.851562 706.863281 L 212.933594 707.003906 L 1201.683594 707.003906 L 1201.742188 706.890625 C 1205.566406 700.292969 1208.628906 693.214844 1211.148438 685.910156 C 1212.113281 683.105469 1213.046875 680.304688 1213.785156 677.386719 C 1214.4375 674.839844 1214.976562 672.234375 1215.457031 669.601562 C 1216.621094 663.371094 1217.414062 656.972656 1217.414062 650.375 L 197.207031 650.375 C 197.207031 656.972656 198 663.34375 199.132812 669.601562 Z M 197.207031 537.109375 L 1217.414062 537.109375 L 1217.414062 593.742188 L 197.207031 593.742188 Z M 197.207031 423.84375 L 197.207031 480.476562 L 1217.414062 480.476562 L 1217.414062 423.84375 Z M 707.308594 310.582031 L 1217.414062 310.582031 L 1217.414062 367.210938 L 707.308594 367.210938 Z M 707.308594 197.316406 L 1217.414062 197.316406 L 1217.414062 253.949219 L 707.308594 253.949219 Z M 197.207031 140.683594 C 197.207031 134.085938 198.058594 127.742188 199.132812 121.457031 C 198 127.714844 197.207031 134.085938 197.207031 140.683594 Z M 212.933594 84.050781 L 212.851562 84.191406 Z M 200.835938 113.613281 C 201.542969 110.726562 202.535156 107.976562 203.441406 105.203125 C 202.476562 107.976562 201.570312 110.753906 200.835938 113.613281 Z M 707.308594 140.683594 L 1217.414062 140.683594 C 1217.414062 134.085938 1216.621094 127.6875 1215.457031 121.429688 C 1214.976562 118.824219 1214.464844 116.21875 1213.785156 113.671875 C 1213.019531 110.753906 1212.113281 107.921875 1211.121094 105.117188 C 1208.597656 97.8125 1205.539062 90.761719 1201.714844 84.164062 C 1201.742188 84.136719 1201.714844 84.078125 1201.683594 84.050781 L 707.308594 84.050781 Z M 707.308594 140.683594 "/>
</g>
<g clip-path="url(#clip3)" clip-rule="nonzero">
<path style=" stroke:none;fill-rule:nonzero;fill:rgb(23.529053%,23.139954%,43.139648%);fill-opacity:1;" d="M 707.308594 27.417969 L 310.5625 27.417969 C 247.960938 27.417969 197.207031 78.132812 197.207031 140.683594 L 197.207031 423.84375 L 707.308594 423.84375 Z M 707.308594 27.417969 "/>
</g>
<path style=" stroke:none;fill-rule:nonzero;fill:rgb(100%,100%,100%);fill-opacity:1;" d="M 253.914062 104.609375 L 271.425781 117.324219 L 264.738281 137.851562 L 282.222656 125.167969 L 299.738281 137.851562 L 293.050781 117.324219 L 310.5625 104.609375 L 288.914062 104.609375 L 282.222656 84.050781 L 275.566406 104.609375 Z M 310.589844 161.242188 L 328.105469 173.953125 L 321.417969 194.484375 L 338.902344 181.796875 L 356.414062 194.484375 L 349.726562 173.953125 L 367.242188 161.242188 L 345.589844 161.242188 L 338.902344 140.683594 L 332.242188 161.242188 Z M 423.949219 161.242188 L 441.460938 173.953125 L 434.773438 194.484375 L 452.257812 181.796875 L 469.773438 194.484375 L 463.085938 173.953125 L 480.597656 161.242188 L 458.945312 161.242188 L 452.257812 140.683594 L 445.597656 161.242188 Z M 537.304688 161.242188 L 554.816406 173.953125 L 548.128906 194.484375 L 565.613281 181.796875 L 583.128906 194.484375 L 576.441406 173.953125 L 593.953125 161.242188 L 572.304688 161.242188 L 565.613281 140.683594 L 558.957031 161.242188 Z M 310.589844 274.503906 L 328.105469 287.21875 L 321.417969 307.75 L 338.902344 295.0625 L 356.414062 307.75 L 349.726562 287.21875 L 367.242188 274.503906 L 345.589844 274.503906 L 338.902344 253.949219 L 332.242188 274.503906 Z M 423.949219 274.503906 L 441.460938 287.21875 L 434.773438 307.75 L 452.257812 295.0625 L 469.773438 307.75 L 463.085938 287.21875 L 480.597656 274.503906 L 458.945312 274.503906 L 452.257812 253.949219 L 445.597656 274.503906 Z M 537.304688 274.503906 L 554.816406 287.21875 L 548.128906 307.75 L 565.613281 295.0625 L 583.128906 307.75 L 576.441406 287.21875 L 593.953125 274.503906 L 572.304688 274.503906 L 565.613281 253.949219 L 558.957031 274.503906 Z M 367.269531 104.609375 L 384.785156 117.324219 L 378.09375 137.851562 L 395.582031 125.167969 L 413.09375 137.851562 L 406.40625 117.324219 L 423.917969 104.609375 L 402.269531 104.609375 L 395.582031 84.050781 L 388.921875 104.609375 Z M 480.625 104.609375 L 498.140625 117.324219 L 491.453125 137.851562 L 508.9375 125.167969 L 526.449219 137.851562 L 519.761719 117.324219 L 537.277344 104.609375 L 515.625 104.609375 L 508.9375 84.050781 L 502.277344 104.609375 Z M 593.980469 104.609375 L 611.496094 117.324219 L 604.808594 137.851562 L 622.292969 125.167969 L 639.804688 137.851562 L 633.117188 117.324219 L 650.632812 104.609375 L 628.980469 104.609375 L 622.292969 84.050781 L 615.632812 104.609375 Z M 253.914062 217.875 L 271.425781 230.585938 L 264.738281 251.117188 L 282.222656 238.429688 L 299.738281 251.117188 L 293.050781 230.585938 L 310.5625 217.875 L 288.914062 217.875 L 282.222656 197.316406 L 275.566406 217.875 Z M 378.09375 251.117188 L 395.582031 238.429688 L 413.09375 251.117188 L 406.40625 230.585938 L 423.917969 217.875 L 402.269531 217.875 L 395.582031 197.316406 L 388.921875 217.875 L 367.269531 217.875 L 384.785156 230.585938 Z M 480.625 217.875 L 498.140625 230.585938 L 491.453125 251.117188 L 508.9375 238.429688 L 526.449219 251.117188 L 519.761719 230.585938 L 537.277344 217.875 L 515.625 217.875 L 508.9375 197.316406 L 502.277344 217.875 Z M 593.980469 217.875 L 611.496094 230.585938 L 604.808594 251.117188 L 622.292969 238.429688 L 639.804688 251.117188 L 633.117188 230.585938 L 650.632812 217.875 L 628.980469 217.875 L 622.292969 197.316406 L 615.632812 217.875 Z M 253.914062 331.136719 L 271.425781 343.851562 L 264.738281 364.378906 L 282.222656 351.695312 L 299.738281 364.378906 L 293.050781 343.851562 L 310.5625 331.136719 L 288.914062 331.136719 L 282.222656 310.582031 L 275.566406 331.136719 Z M 378.09375 364.378906 L 395.582031 351.695312 L 413.09375 364.378906 L 406.40625 343.851562 L 423.917969 331.136719 L 402.269531 331.136719 L 395.582031 310.582031 L 388.921875 331.136719 L 367.269531 331.136719 L 384.785156 343.851562 Z M 480.625 331.136719 L 498.140625 343.851562 L 491.453125 364.378906 L 508.9375 351.695312 L 526.449219 364.378906 L 519.761719 343.851562 L 537.277344 331.136719 L 515.625 331.136719 L 508.9375 310.582031 L 502.277344 331.136719 Z M 593.980469 331.136719 L 611.496094 343.851562 L 604.808594 364.378906 L 622.292969 351.695312 L 639.804688 364.378906 L 633.117188 343.851562 L 650.632812 331.136719 L 628.980469 331.136719 L 622.292969 310.582031 L 615.632812 331.136719 Z M 593.980469 331.136719 "/>
</g>
</svg>
