<?xml version="1.0" encoding="UTF-8"?>
<svg xmlns="http://www.w3.org/2000/svg" xmlns:xlink="http://www.w3.org/1999/xlink" width="1440pt" height="809.999993pt" viewBox="0 0 1440 809.999993" version="1.2">
<defs>
<clipPath id="clip1">
  <path d="M 81 29.570312 L 1127.25 29.570312 L 1127.25 784.820312 L 81 784.820312 Z M 81 29.570312 "/>
</clipPath>
<clipPath id="clip2">
  <path d="M 81 232 L 1127.25 232 L 1127.25 582 L 81 582 Z M 81 232 "/>
</clipPath>
</defs>
<g id="surface1">
<g clip-path="url(#clip1)" clip-rule="nonzero">
<path style=" stroke:none;fill-rule:nonzero;fill:rgb(77.648926%,3.919983%,11.369324%);fill-opacity:1;" d="M 1127.097656 668.753906 C 1127.097656 732.9375 1075.066406 784.972656 1010.894531 784.972656 L 197.496094 784.972656 C 133.324219 784.972656 81.292969 732.9375 81.292969 668.753906 L 81.292969 145.785156 C 81.292969 81.605469 133.324219 29.570312 197.496094 29.570312 L 1010.894531 29.570312 C 1075.066406 29.570312 1127.097656 81.605469 1127.097656 145.785156 Z M 1127.097656 668.753906 "/>
</g>
<g clip-path="url(#clip2)" clip-rule="nonzero">
<path style=" stroke:none;fill-rule:nonzero;fill:rgb(100%,76.858521%,0%);fill-opacity:1;" d="M 81.292969 232.945312 L 1127.097656 232.945312 L 1127.097656 581.59375 L 81.292969 581.59375 Z M 81.292969 232.945312 "/>
</g>
<path style=" stroke:none;fill-rule:nonzero;fill:rgb(91.758728%,34.899902%,43.139648%);fill-opacity:1;" d="M 342.746094 378.214844 L 342.746094 465.378906 C 342.746094 513.519531 381.757812 552.539062 429.894531 552.539062 C 478.03125 552.539062 517.046875 513.519531 517.046875 465.378906 L 517.046875 378.214844 Z M 342.746094 378.214844 "/>
<path style=" stroke:none;fill-rule:nonzero;fill:rgb(95.689392%,63.529968%,69.799805%);fill-opacity:1;" d="M 429.894531 349.164062 L 517.046875 349.164062 L 517.046875 436.324219 L 429.894531 436.324219 Z M 429.894531 349.164062 "/>
<path style=" stroke:none;fill-rule:nonzero;fill:rgb(86.669922%,18.03894%,26.669312%);fill-opacity:1;" d="M 342.746094 349.164062 L 429.894531 349.164062 L 429.894531 436.324219 L 342.746094 436.324219 Z M 342.746094 349.164062 "/>
<path style=" stroke:none;fill-rule:nonzero;fill:rgb(91.758728%,34.899902%,43.139648%);fill-opacity:1;" d="M 517.046875 305.582031 C 517.046875 306.292969 517.011719 307.007812 516.941406 307.71875 C 516.871094 308.433594 516.765625 309.144531 516.625 309.851562 C 516.484375 310.5625 516.3125 311.269531 516.101562 311.976562 C 515.894531 312.683594 515.648438 313.382812 515.371094 314.082031 C 515.09375 314.785156 514.78125 315.480469 514.433594 316.171875 C 514.085938 316.863281 513.707031 317.550781 513.292969 318.234375 C 512.878906 318.914062 512.429688 319.59375 511.949219 320.261719 C 511.46875 320.933594 510.957031 321.601562 510.410156 322.257812 C 509.867188 322.917969 509.289062 323.570312 508.679688 324.214844 C 508.066406 324.859375 507.425781 325.496094 506.753906 326.125 C 506.082031 326.753906 505.378906 327.375 504.644531 327.988281 C 503.914062 328.597656 503.148438 329.199219 502.359375 329.792969 C 501.566406 330.386719 500.746094 330.96875 499.894531 331.542969 C 499.046875 332.117188 498.167969 332.679688 497.261719 333.230469 C 496.359375 333.78125 495.425781 334.320312 494.46875 334.847656 C 493.511719 335.378906 492.527344 335.894531 491.519531 336.398438 C 490.511719 336.902344 489.476562 337.394531 488.421875 337.871094 C 487.363281 338.351562 486.285156 338.816406 485.183594 339.269531 C 484.078125 339.722656 482.957031 340.160156 481.808594 340.585938 C 480.664062 341.011719 479.5 341.421875 478.3125 341.816406 C 477.128906 342.214844 475.921875 342.59375 474.699219 342.960938 C 473.476562 343.328125 472.234375 343.679688 470.976562 344.015625 C 469.71875 344.351562 468.445312 344.671875 467.15625 344.976562 C 465.867188 345.285156 464.5625 345.570312 463.246094 345.84375 C 461.929688 346.117188 460.597656 346.375 459.253906 346.613281 C 457.914062 346.855469 456.558594 347.078125 455.195312 347.285156 C 453.828125 347.492188 452.453125 347.683594 451.070312 347.855469 C 449.6875 348.03125 448.296875 348.1875 446.898438 348.324219 C 445.5 348.464844 444.09375 348.585938 442.683594 348.691406 C 441.273438 348.796875 439.855469 348.882812 438.4375 348.953125 C 437.019531 349.023438 435.597656 349.074219 434.171875 349.109375 C 432.746094 349.144531 431.320312 349.164062 429.894531 349.164062 C 428.46875 349.164062 427.042969 349.144531 425.617188 349.109375 C 424.195312 349.074219 422.773438 349.023438 421.351562 348.953125 C 419.933594 348.882812 418.519531 348.796875 417.109375 348.691406 C 415.695312 348.585938 414.292969 348.464844 412.894531 348.324219 C 411.492188 348.1875 410.101562 348.03125 408.71875 347.855469 C 407.335938 347.683594 405.960938 347.492188 404.597656 347.285156 C 403.230469 347.078125 401.878906 346.855469 400.535156 346.613281 C 399.191406 346.375 397.863281 346.117188 396.542969 345.84375 C 395.226562 345.570312 393.921875 345.285156 392.632812 344.976562 C 391.34375 344.671875 390.070312 344.351562 388.8125 344.015625 C 387.554688 343.679688 386.3125 343.328125 385.089844 342.960938 C 383.867188 342.59375 382.664062 342.214844 381.476562 341.816406 C 380.292969 341.421875 379.125 341.011719 377.980469 340.585938 C 376.835938 340.160156 375.710938 339.722656 374.609375 339.269531 C 373.503906 338.816406 372.425781 338.351562 371.367188 337.871094 C 370.3125 337.394531 369.277344 336.902344 368.269531 336.398438 C 367.261719 335.894531 366.277344 335.378906 365.320312 334.847656 C 364.363281 334.320312 363.433594 333.78125 362.527344 333.230469 C 361.621094 332.679688 360.746094 332.117188 359.894531 331.542969 C 359.046875 330.96875 358.226562 330.386719 357.433594 329.792969 C 356.640625 329.199219 355.878906 328.597656 355.144531 327.988281 C 354.410156 327.375 353.707031 326.753906 353.035156 326.125 C 352.363281 325.496094 351.722656 324.859375 351.113281 324.214844 C 350.503906 323.570312 349.925781 322.917969 349.378906 322.257812 C 348.832031 321.601562 348.320312 320.933594 347.839844 320.261719 C 347.359375 319.59375 346.910156 318.914062 346.496094 318.234375 C 346.082031 317.550781 345.703125 316.863281 345.355469 316.171875 C 345.011719 315.480469 344.699219 314.785156 344.417969 314.082031 C 344.140625 313.382812 343.898438 312.683594 343.6875 311.976562 C 343.480469 311.269531 343.304688 310.5625 343.164062 309.851562 C 343.023438 309.144531 342.921875 308.433594 342.851562 307.71875 C 342.78125 307.007812 342.746094 306.292969 342.746094 305.582031 C 342.746094 304.867188 342.78125 304.15625 342.851562 303.441406 C 342.921875 302.730469 343.023438 302.019531 343.164062 301.308594 C 343.304688 300.601562 343.480469 299.890625 343.6875 299.1875 C 343.898438 298.480469 344.140625 297.777344 344.417969 297.078125 C 344.699219 296.378906 345.011719 295.683594 345.355469 294.992188 C 345.703125 294.300781 346.082031 293.613281 346.496094 292.929688 C 346.910156 292.25 347.359375 291.570312 347.839844 290.898438 C 348.320312 290.226562 348.832031 289.5625 349.378906 288.902344 C 349.925781 288.246094 350.503906 287.59375 351.113281 286.949219 C 351.722656 286.304688 352.363281 285.667969 353.035156 285.039062 C 353.707031 284.410156 354.410156 283.789062 355.144531 283.175781 C 355.878906 282.566406 356.640625 281.960938 357.433594 281.371094 C 358.226562 280.777344 359.046875 280.195312 359.894531 279.621094 C 360.746094 279.046875 361.621094 278.484375 362.527344 277.933594 C 363.433594 277.382812 364.363281 276.84375 365.320312 276.316406 C 366.277344 275.785156 367.261719 275.269531 368.269531 274.765625 C 369.277344 274.261719 370.3125 273.769531 371.367188 273.289062 C 372.425781 272.8125 373.503906 272.34375 374.609375 271.894531 C 375.710938 271.441406 376.835938 271.003906 377.980469 270.578125 C 379.125 270.152344 380.292969 269.742188 381.476562 269.34375 C 382.664062 268.949219 383.867188 268.566406 385.089844 268.199219 C 386.3125 267.835938 387.554688 267.484375 388.8125 267.148438 C 390.070312 266.808594 391.34375 266.488281 392.632812 266.183594 C 393.921875 265.878906 395.226562 265.589844 396.542969 265.316406 C 397.863281 265.046875 399.191406 264.789062 400.535156 264.546875 C 401.878906 264.308594 403.230469 264.085938 404.597656 263.878906 C 405.960938 263.671875 407.335938 263.480469 408.71875 263.308594 C 410.101562 263.132812 411.492188 262.976562 412.894531 262.839844 C 414.292969 262.699219 415.695312 262.578125 417.109375 262.472656 C 418.519531 262.367188 419.933594 262.28125 421.351562 262.210938 C 422.773438 262.140625 424.195312 262.089844 425.617188 262.054688 C 427.042969 262.019531 428.46875 262 429.894531 262 C 431.320312 262 432.746094 262.019531 434.171875 262.054688 C 435.597656 262.089844 437.019531 262.140625 438.4375 262.210938 C 439.855469 262.28125 441.273438 262.367188 442.683594 262.472656 C 444.09375 262.578125 445.5 262.699219 446.898438 262.839844 C 448.296875 262.976562 449.6875 263.132812 451.070312 263.308594 C 452.453125 263.480469 453.828125 263.671875 455.195312 263.878906 C 456.558594 264.085938 457.914062 264.308594 459.253906 264.546875 C 460.597656 264.789062 461.929688 265.046875 463.246094 265.316406 C 464.5625 265.589844 465.867188 265.878906 467.15625 266.183594 C 468.445312 266.488281 469.71875 266.808594 470.976562 267.148438 C 472.234375 267.484375 473.476562 267.835938 474.699219 268.199219 C 475.921875 268.566406 477.128906 268.949219 478.3125 269.34375 C 479.5 269.742188 480.664062 270.152344 481.808594 270.578125 C 482.957031 271.003906 484.078125 271.441406 485.183594 271.894531 C 486.285156 272.34375 487.363281 272.8125 488.421875 273.289062 C 489.476562 273.769531 490.511719 274.261719 491.519531 274.765625 C 492.527344 275.269531 493.511719 275.785156 494.46875 276.316406 C 495.425781 276.84375 496.359375 277.382812 497.261719 277.933594 C 498.167969 278.484375 499.046875 279.046875 499.894531 279.621094 C 500.746094 280.195312 501.566406 280.777344 502.359375 281.371094 C 503.148438 281.960938 503.914062 282.566406 504.644531 283.175781 C 505.378906 283.789062 506.082031 284.410156 506.753906 285.039062 C 507.425781 285.667969 508.066406 286.304688 508.679688 286.949219 C 509.289062 287.59375 509.867188 288.246094 510.410156 288.902344 C 510.957031 289.5625 511.46875 290.226562 511.949219 290.898438 C 512.429688 291.570312 512.878906 292.25 513.292969 292.929688 C 513.707031 293.613281 514.085938 294.300781 514.433594 294.992188 C 514.78125 295.683594 515.09375 296.378906 515.371094 297.078125 C 515.648438 297.777344 515.894531 298.480469 516.101562 299.1875 C 516.3125 299.890625 516.484375 300.601562 516.625 301.308594 C 516.765625 302.019531 516.871094 302.730469 516.941406 303.441406 C 517.011719 304.15625 517.046875 304.867188 517.046875 305.582031 Z M 517.046875 305.582031 "/>
<path style=" stroke:none;fill-rule:nonzero;fill:rgb(100%,67.449951%,19.999695%);fill-opacity:1;" d="M 517.046875 283.792969 C 517.046875 284.148438 517.011719 284.503906 516.941406 284.859375 C 516.871094 285.214844 516.765625 285.570312 516.625 285.925781 C 516.484375 286.28125 516.3125 286.636719 516.101562 286.988281 C 515.894531 287.339844 515.648438 287.691406 515.371094 288.042969 C 515.09375 288.390625 514.78125 288.738281 514.433594 289.085938 C 514.085938 289.433594 513.707031 289.773438 513.292969 290.117188 C 512.878906 290.457031 512.429688 290.796875 511.949219 291.132812 C 511.46875 291.46875 510.957031 291.800781 510.410156 292.128906 C 509.867188 292.460938 509.289062 292.785156 508.679688 293.109375 C 508.066406 293.429688 507.425781 293.75 506.753906 294.0625 C 506.082031 294.378906 505.378906 294.6875 504.644531 294.992188 C 503.914062 295.300781 503.148438 295.601562 502.359375 295.898438 C 501.566406 296.195312 500.746094 296.484375 499.894531 296.773438 C 499.046875 297.058594 498.167969 297.339844 497.261719 297.613281 C 496.359375 297.890625 495.425781 298.160156 494.46875 298.425781 C 493.511719 298.6875 492.527344 298.945312 491.519531 299.199219 C 490.511719 299.453125 489.476562 299.699219 488.421875 299.9375 C 487.363281 300.175781 486.285156 300.410156 485.183594 300.636719 C 484.078125 300.863281 482.957031 301.082031 481.808594 301.292969 C 480.664062 301.507812 479.5 301.710938 478.3125 301.910156 C 477.128906 302.105469 475.921875 302.296875 474.699219 302.480469 C 473.476562 302.664062 472.234375 302.839844 470.976562 303.007812 C 469.71875 303.175781 468.445312 303.335938 467.15625 303.488281 C 465.867188 303.640625 464.5625 303.785156 463.246094 303.921875 C 461.929688 304.058594 460.597656 304.1875 459.253906 304.308594 C 457.914062 304.429688 456.558594 304.539062 455.195312 304.644531 C 453.828125 304.746094 452.453125 304.84375 451.070312 304.929688 C 449.6875 305.015625 448.296875 305.09375 446.898438 305.164062 C 445.5 305.234375 444.09375 305.292969 442.683594 305.347656 C 441.273438 305.398438 439.855469 305.441406 438.4375 305.476562 C 437.019531 305.511719 435.597656 305.539062 434.171875 305.554688 C 432.746094 305.574219 431.320312 305.582031 429.894531 305.582031 C 428.46875 305.582031 427.042969 305.574219 425.617188 305.554688 C 424.195312 305.539062 422.773438 305.511719 421.351562 305.476562 C 419.933594 305.441406 418.519531 305.398438 417.109375 305.347656 C 415.695312 305.292969 414.292969 305.234375 412.894531 305.164062 C 411.492188 305.09375 410.101562 305.015625 408.71875 304.929688 C 407.335938 304.84375 405.960938 304.746094 404.597656 304.644531 C 403.230469 304.539062 401.878906 304.429688 400.535156 304.308594 C 399.191406 304.1875 397.863281 304.058594 396.542969 303.921875 C 395.226562 303.785156 393.921875 303.640625 392.632812 303.488281 C 391.34375 303.335938 390.070312 303.175781 388.8125 303.007812 C 387.554688 302.839844 386.3125 302.664062 385.089844 302.480469 C 383.867188 302.296875 382.664062 302.105469 381.476562 301.910156 C 380.292969 301.710938 379.125 301.507812 377.980469 301.292969 C 376.835938 301.082031 375.710938 300.863281 374.609375 300.636719 C 373.503906 300.410156 372.425781 300.175781 371.367188 299.9375 C 370.3125 299.699219 369.277344 299.453125 368.269531 299.199219 C 367.261719 298.945312 366.277344 298.6875 365.320312 298.425781 C 364.363281 298.160156 363.433594 297.890625 362.527344 297.613281 C 361.621094 297.339844 360.746094 297.058594 359.894531 296.773438 C 359.046875 296.484375 358.226562 296.195312 357.433594 295.898438 C 356.640625 295.601562 355.878906 295.300781 355.144531 294.992188 C 354.410156 294.6875 353.707031 294.378906 353.035156 294.0625 C 352.363281 293.75 351.722656 293.429688 351.113281 293.109375 C 350.503906 292.785156 349.925781 292.460938 349.378906 292.128906 C 348.832031 291.800781 348.320312 291.46875 347.839844 291.132812 C 347.359375 290.796875 346.910156 290.457031 346.496094 290.117188 C 346.082031 289.773438 345.703125 289.433594 345.355469 289.085938 C 345.011719 288.738281 344.699219 288.390625 344.417969 288.042969 C 344.140625 287.691406 343.898438 287.339844 343.6875 286.988281 C 343.480469 286.636719 343.304688 286.28125 343.164062 285.925781 C 343.023438 285.570312 342.921875 285.214844 342.851562 284.859375 C 342.78125 284.503906 342.746094 284.148438 342.746094 283.792969 C 342.746094 283.433594 342.78125 283.078125 342.851562 282.722656 C 342.921875 282.367188 343.023438 282.011719 343.164062 281.65625 C 343.304688 281.300781 343.480469 280.945312 343.6875 280.59375 C 343.898438 280.242188 344.140625 279.890625 344.417969 279.539062 C 344.699219 279.191406 345.011719 278.84375 345.355469 278.496094 C 345.703125 278.152344 346.082031 277.808594 346.496094 277.464844 C 346.910156 277.125 347.359375 276.785156 347.839844 276.449219 C 348.320312 276.113281 348.832031 275.78125 349.378906 275.453125 C 349.925781 275.121094 350.503906 274.796875 351.113281 274.472656 C 351.722656 274.152344 352.363281 273.832031 353.035156 273.519531 C 353.707031 273.203125 354.410156 272.894531 355.144531 272.589844 C 355.878906 272.28125 356.640625 271.980469 357.433594 271.683594 C 358.226562 271.386719 359.046875 271.097656 359.894531 270.8125 C 360.746094 270.523438 361.621094 270.242188 362.527344 269.96875 C 363.433594 269.691406 364.363281 269.421875 365.320312 269.15625 C 366.277344 268.894531 367.261719 268.636719 368.269531 268.382812 C 369.277344 268.128906 370.3125 267.886719 371.367188 267.644531 C 372.425781 267.40625 373.503906 267.171875 374.609375 266.945312 C 375.710938 266.722656 376.835938 266.5 377.980469 266.289062 C 379.125 266.078125 380.292969 265.871094 381.476562 265.671875 C 382.664062 265.476562 383.867188 265.285156 385.089844 265.101562 C 386.3125 264.917969 387.554688 264.742188 388.8125 264.574219 C 390.070312 264.40625 391.34375 264.246094 392.632812 264.09375 C 393.921875 263.941406 395.226562 263.796875 396.542969 263.660156 C 397.863281 263.523438 399.191406 263.394531 400.535156 263.273438 C 401.878906 263.15625 403.230469 263.042969 404.597656 262.9375 C 405.960938 262.835938 407.335938 262.742188 408.71875 262.652344 C 410.101562 262.566406 411.492188 262.488281 412.894531 262.417969 C 414.292969 262.351562 415.695312 262.289062 417.109375 262.238281 C 418.519531 262.183594 419.933594 262.140625 421.351562 262.105469 C 422.773438 262.070312 424.195312 262.042969 425.617188 262.027344 C 427.042969 262.007812 428.46875 262 429.894531 262 C 431.320312 262 432.746094 262.007812 434.171875 262.027344 C 435.597656 262.042969 437.019531 262.070312 438.4375 262.105469 C 439.855469 262.140625 441.273438 262.183594 442.683594 262.238281 C 444.09375 262.289062 445.5 262.351562 446.898438 262.417969 C 448.296875 262.488281 449.6875 262.566406 451.070312 262.652344 C 452.453125 262.742188 453.828125 262.835938 455.195312 262.9375 C 456.558594 263.042969 457.914062 263.15625 459.253906 263.273438 C 460.597656 263.394531 461.929688 263.523438 463.246094 263.660156 C 464.5625 263.796875 465.867188 263.941406 467.15625 264.09375 C 468.445312 264.246094 469.71875 264.40625 470.976562 264.574219 C 472.234375 264.742188 473.476562 264.917969 474.699219 265.101562 C 475.921875 265.285156 477.128906 265.476562 478.3125 265.671875 C 479.5 265.871094 480.664062 266.078125 481.808594 266.289062 C 482.957031 266.5 484.078125 266.722656 485.183594 266.945312 C 486.285156 267.171875 487.363281 267.40625 488.421875 267.644531 C 489.476562 267.886719 490.511719 268.128906 491.519531 268.382812 C 492.527344 268.636719 493.511719 268.894531 494.46875 269.15625 C 495.425781 269.421875 496.359375 269.691406 497.261719 269.96875 C 498.167969 270.242188 499.046875 270.523438 499.894531 270.8125 C 500.746094 271.097656 501.566406 271.386719 502.359375 271.683594 C 503.148438 271.980469 503.914062 272.28125 504.644531 272.589844 C 505.378906 272.894531 506.082031 273.203125 506.753906 273.519531 C 507.425781 273.832031 508.066406 274.152344 508.679688 274.472656 C 509.289062 274.796875 509.867188 275.121094 510.410156 275.453125 C 510.957031 275.78125 511.46875 276.113281 511.949219 276.449219 C 512.429688 276.785156 512.878906 277.125 513.292969 277.464844 C 513.707031 277.808594 514.085938 278.152344 514.433594 278.496094 C 514.78125 278.84375 515.09375 279.191406 515.371094 279.539062 C 515.648438 279.890625 515.894531 280.242188 516.101562 280.59375 C 516.3125 280.945312 516.484375 281.300781 516.625 281.65625 C 516.765625 282.011719 516.871094 282.367188 516.941406 282.722656 C 517.011719 283.078125 517.046875 283.433594 517.046875 283.792969 Z M 517.046875 283.792969 "/>
<path style=" stroke:none;fill-rule:nonzero;fill:rgb(59.999084%,66.668701%,70.979309%);fill-opacity:1;" d="M 284.644531 349.164062 L 313.695312 349.164062 L 313.695312 552.539062 L 284.644531 552.539062 Z M 546.09375 349.164062 L 575.144531 349.164062 L 575.144531 552.539062 L 546.09375 552.539062 Z M 546.09375 349.164062 "/>
<path style=" stroke:none;fill-rule:nonzero;fill:rgb(39.99939%,45.878601%,49.798584%);fill-opacity:1;" d="M 255.59375 523.484375 L 342.746094 523.484375 L 342.746094 552.539062 L 255.59375 552.539062 Z M 517.046875 523.484375 L 604.195312 523.484375 L 604.195312 552.539062 L 517.046875 552.539062 Z M 284.644531 320.109375 L 313.695312 320.109375 L 313.695312 349.164062 L 284.644531 349.164062 Z M 546.09375 320.109375 L 575.144531 320.109375 L 575.144531 349.164062 L 546.09375 349.164062 Z M 546.09375 320.109375 "/>
</g>
</svg>
