<svg xmlns="http://www.w3.org/2000/svg" xmlns:xlink="http://www.w3.org/1999/xlink" viewBox="0 0 346 295.78"><defs><style>.cls-1{fill:url(#Degradado_sin_nombre_4);}.cls-2{fill:none;}.cls-3{fill:#eb9642;}.cls-4{clip-path:url(#clip-path);}.cls-5{fill:url(#Degradado_sin_nombre_2);}.cls-6{fill:#62c1c5;}.cls-7{clip-path:url(#clip-path-2);}.cls-8{mask:url(#mask);}.cls-9{fill:url(#Degradado_sin_nombre_3);}.cls-10{fill:#fff;}.cls-11{clip-path:url(#clip-path-3);}.cls-12{fill:url(#Degradado_sin_nombre_5);}.cls-13{fill:#202442;}.cls-14{fill:#c8cadb;}.cls-15{fill:#51a0a3;}.cls-16{fill:#dadefe;}.cls-17{fill:#346669;}.cls-18{fill:#428285;}.cls-19{fill:#00666b;}.cls-20{fill:#e2bc9d;}.cls-21{fill:#9fb4b8;}.cls-22{fill:#34364d;}.cls-23{fill:#222433;}.cls-24{fill:#edb188;}.cls-25{fill:#bd7935;}.cls-26{fill:#414460;}.cls-27{fill:#ff7f00;}.cls-28{fill:#29292b;}.cls-29{fill:#cce8ec;}.cls-30{fill:#bd9c35;}.cls-31{clip-path:url(#clip-path-4);}.cls-32{fill:#5a3d37;}.cls-33{fill:#e0b696;}.cls-34{fill:#69571d;}.cls-35{fill:#efc6b1;}.cls-36{fill:#438487;}.cls-37{fill:#e0b9a9;}.cls-38{fill:#ff9021;}.cls-39{clip-path:url(#clip-path-5);}.cls-40{fill:url(#Degradado_sin_nombre_6);}</style><linearGradient id="Degradado_sin_nombre_4" x1="-239.5" y1="324.54" x2="-238.5" y2="324.54" gradientTransform="matrix(0, 87.17, 87.17, 0, -28120.22, 20855.05)" gradientUnits="userSpaceOnUse"><stop offset="0" stop-color="#fff"/><stop offset="0.02" stop-color="#fff"/><stop offset="0.51"/><stop offset="1"/></linearGradient><clipPath id="clip-path"><path class="cls-2" d="M288.62,89.61A11.2,11.2,0,1,1,297,93.43a11.2,11.2,0,0,1-8.43-3.82m-.8-26.53-.08,5.42-3.07,2.69-5.39-.63L277,75.22l3.78,3.89-.27,4.08-4.25,3.36,1.66,4.91,5.42.08L286,94.61l-.63,5.38,4.65,2.29,3.89-3.77,4.08.27,3.36,4.25,4.91-1.67.08-5.42,3.07-2.69,5.39.63,2.29-4.65-3.78-3.89.27-4.08,4.25-3.36L316.19,73l-5.42-.08-2.69-3.07.63-5.38-4.65-2.3-3.89,3.78-4.08-.27-3.36-4.25Z"/></clipPath><linearGradient id="Degradado_sin_nombre_2" x1="-239.5" y1="324.54" x2="-238.5" y2="324.54" gradientTransform="matrix(41.61, 0, 0, -41.61, 10242.88, 13587.71)" gradientUnits="userSpaceOnUse"><stop offset="0" stop-color="#011533"/><stop offset="1" stop-color="#282c52"/></linearGradient><clipPath id="clip-path-2"><path class="cls-2" d="M169.43,5a27.94,27.94,0,0,0-26.95,32.27h55.28A27.88,27.88,0,0,0,170.13,5h-.7"/></clipPath><mask id="mask" x="142.11" y="5" width="56.01" height="32.28" maskUnits="userSpaceOnUse"><rect class="cls-1" x="142.11" y="5" width="56.01" height="32.28"/></mask><linearGradient id="Degradado_sin_nombre_3" x1="-239.5" y1="324.54" x2="-238.5" y2="324.54" gradientTransform="matrix(0, 87.17, 87.17, 0, -28120.22, 20855.06)" gradientUnits="userSpaceOnUse"><stop offset="0" stop-color="#fff"/><stop offset="0.02" stop-color="#fff"/><stop offset="0.51" stop-color="#fff"/><stop offset="1" stop-color="#fff"/></linearGradient><clipPath id="clip-path-3"><path class="cls-2" d="M153.42,78.67V93.34a8,8,0,0,0,8,8h17.52a8,8,0,0,0,8-8V78.67Z"/></clipPath><linearGradient id="Degradado_sin_nombre_5" x1="-239.5" y1="324.54" x2="-238.5" y2="324.54" gradientTransform="matrix(0, -22.02, -22.02, 0, 7317.35, -5177.65)" gradientUnits="userSpaceOnUse"><stop offset="0" stop-color="#282c52"/><stop offset="1" stop-color="#383c60"/></linearGradient><clipPath id="clip-path-4"><path id="SVGID" class="cls-2" d="M212.67,115.71c5.57,4.1,8.38,11.79,14.88,14.14,4.57,1.65,11.06-1.06,13.83,4.39a16.19,16.19,0,0,1,1.3,5.68,14.73,14.73,0,0,0,1.4,5.65c1.26,2.28,3.59,3.75,4.86,6a16.11,16.11,0,0,1,1.41,8.88c-1,9.37-10.85,17.28-19.91,11.83-4.05-2.44-1-8.52-2.14-12.37a25.11,25.11,0,0,0-2.77-6.94c-1.38-2.17-3.45-4.09-6-4.49a13.6,13.6,0,0,0-3,0c-1.62.11-3.22.22-4.58-.6-2.43-1.46-2.52-4.91-2.15-7.72s.74-6.1-1.28-8.08a6.88,6.88,0,0,0-4.89-1.58,47,47,0,0,1-5.27.1c-2.62-.3-6.17-1.5-7.71-3.64a11.62,11.62,0,0,1-1.25-2.07c-1.07-2.73.63-5.77,2.73-7.82a17.13,17.13,0,0,1,6.46-3.66,15.38,15.38,0,0,1,4.7-.73,15.9,15.9,0,0,1,9.36,3"/></clipPath><clipPath id="clip-path-5"><path class="cls-2" d="M60.13,113.46c-5.57,4.1-8.38,11.79-14.88,14.14-4.57,1.65-11.06-1.06-13.83,4.39a16.19,16.19,0,0,0-1.3,5.68,14.73,14.73,0,0,1-1.4,5.65c-1.26,2.28-3.59,3.75-4.86,6a16.11,16.11,0,0,0-1.41,8.88c1,9.37,10.85,17.28,19.91,11.83,4.05-2.44,1-8.52,2.14-12.37a25.11,25.11,0,0,1,2.77-6.94c1.38-2.17,3.45-4.09,6-4.49a13.6,13.6,0,0,1,3,0c1.62.11,3.22.22,4.58-.6,2.43-1.46,2.52-4.91,2.15-7.72s-.74-6.1,1.28-8.08a6.88,6.88,0,0,1,4.89-1.58,47,47,0,0,0,5.27.1c2.62-.3,6.17-1.5,7.71-3.64a11.62,11.62,0,0,0,1.25-2.07c1.07-2.73-.63-5.77-2.73-7.82a17.13,17.13,0,0,0-6.46-3.66,15.38,15.38,0,0,0-4.7-.73,15.9,15.9,0,0,0-9.36,3"/></clipPath><linearGradient id="Degradado_sin_nombre_6" x1="-239.5" y1="324.51" x2="-238.5" y2="324.51" gradientTransform="matrix(61.35, 0, 0, -61.35, 14716.1, 20052.17)" gradientUnits="userSpaceOnUse"><stop offset="0" stop-color="#282c52"/><stop offset="1" stop-color="#633a34"/></linearGradient></defs><title>Recurso 9</title><g id="Capa_2" data-name="Capa 2"><g id="Capa_1-2" data-name="Capa 1"><g id="Imagen_Central" data-name="Imagen Central"><path class="cls-3" d="M126.33,106.63h-4.18v-4.18a2.16,2.16,0,1,0-4.32,0v4.18h-4.18a2.16,2.16,0,1,0,0,4.32h4.18v4.18a2.16,2.16,0,1,0,4.32,0v-4.18h4.18a2.16,2.16,0,0,0,0-4.32"/><g class="cls-4"><rect class="cls-5" x="276.24" y="61.42" width="41.61" height="41.61"/></g><path class="cls-6" d="M265.27,78.52l5.38.63,2.3-4.65-3.78-3.89.27-4.08,4.25-3.36L272,58.26l-5.42-.08-2.69-3.07.63-5.38-4.65-2.3L256,51.21l-4.08-.27-3.36-4.25-4.91,1.67-.08,5.42-3.07,2.69-5.38-.63-2.29,4.65,3.78,3.89-.27,4.08-4.25,3.36,1.67,4.91,5.42.08,2.69,3.07-.63,5.38,4.65,2.3,3.89-3.78,4.08.27,3.36,4.26,4.91-1.66.08-5.42Zm-5-2.6a11.21,11.21,0,1,1,1-15.81,11.21,11.21,0,0,1-1,15.81"/><polygon class="cls-3" points="331.13 12.93 310.32 39.61 324.96 40.07 318.95 57.95 341 29.74 325.74 29.89 331.13 12.93"/><path class="cls-3" d="M203.12,33a33,33,0,1,0-58.7,20.65,39.24,39.24,0,0,1,8.86,24.56v.62H187V78.2A38.07,38.07,0,0,1,195.6,54a32.84,32.84,0,0,0,7.52-21"/><g class="cls-7"><g class="cls-8"><rect class="cls-9" x="142.11" y="5" width="56.01" height="32.28"/></g></g><path class="cls-10" d="M168.69,78.78h-1.91V43.7a4.53,4.53,0,1,0-4.53,4.52h2.16v1.91h-2.16a6.43,6.43,0,1,1,6.43-6.43Z"/><path class="cls-10" d="M173.58,78.78h-1.91V43.7a6.43,6.43,0,1,1,6.43,6.43h-2.16V48.22h2.16a4.52,4.52,0,1,0-4.52-4.52Z"/><g class="cls-11"><rect class="cls-12" x="153.42" y="78.67" width="33.43" height="22.62"/></g><path class="cls-13" d="M176.34,108H163.93a3.5,3.5,0,0,1-3.5-3.5v-3.65h19.41v3.65a3.5,3.5,0,0,1-3.5,3.5"/><path class="cls-14" d="M346,285.78c0,5.52-77.45,10-173,10S0,291.3,0,285.78s77.45-10,173-10,173,4.48,173,10"/><path class="cls-15" d="M154.72,176h-4.11v-9.72h4.11a3.62,3.62,0,0,1,3.61,3.61v2.5a3.61,3.61,0,0,1-3.61,3.61m-2.7-1.41h2.7a2.2,2.2,0,0,0,2.2-2.2v-2.5a2.2,2.2,0,0,0-2.2-2.2H152Z"/><path class="cls-16" d="M149.83,117.83a8.06,8.06,0,0,0-4.36,3.07,9.61,9.61,0,0,0-1.81,4.37c-.46,3.13.36,6.5,1.44,10.09.26.91.56,1.84.85,2.8s.57,1.95.82,3a26.47,26.47,0,0,1,.86,6.5,15.21,15.21,0,0,1-1.52,6.67,9.56,9.56,0,0,1-4.76,4.71l-.43-.51a11.43,11.43,0,0,0,1.67-5.25,17,17,0,0,0-.42-5.16c-.76-3.42-2.36-6.85-3.6-10.87-.3-1-.57-2.06-.8-3.14a25.51,25.51,0,0,1-.43-3.33,16.24,16.24,0,0,1,1-7,11.63,11.63,0,0,1,4.66-5.57,9.49,9.49,0,0,1,3.37-1.29,6.84,6.84,0,0,1,3.46.27Z"/><path class="cls-6" d="M147.48,163.41H136.59v12.48a4.08,4.08,0,0,0,4.07,4.07h6.57a4.07,4.07,0,0,0,4.07-4.07V163.41Z"/><path class="cls-15" d="M147.48,163.41v11.48a4.07,4.07,0,0,1-4.07,4.07H138a4.05,4.05,0,0,0,2.66,1h6.57a4.07,4.07,0,0,0,4.07-4.07V163.41Z"/><rect class="cls-17" x="221.58" y="217.46" width="3.96" height="62.09"/><path class="cls-6" d="M228.12,219.35l-43.47-.59L181,156.35a13.88,13.88,0,0,1,13.94-14.63l25.9-.26c11.36,0,17.43,10.47,15.8,21.71Z"/><path class="cls-18" d="M228.19,219.44H173.38v-2.6a14.24,14.24,0,0,1,14.24-14.24h26.32a14.24,14.24,0,0,1,14.24,14.24Z"/><rect class="cls-17" x="176.02" y="217.46" width="3.96" height="62.09"/><path class="cls-19" d="M221.8,192.37H189a.44.44,0,0,1-.44-.44V157.23A14.39,14.39,0,0,1,203,142.84h4.9a14.39,14.39,0,0,1,14.39,14.39v34.69a.44.44,0,0,1-.44.44"/><path class="cls-20" d="M226.7,156s12.22,14.2,9.57,23.11c0,0,0,4.62-19-.17l-16-2.64-.66-4.46a122.91,122.91,0,0,1,27.24,2c-1.15-1.28-2.32-2.77-3.53-4.41a34.12,34.12,0,0,1-4.89-8.63Z"/><path class="cls-19" d="M212.24,144.11s11.76-1.38,21.45,22.17l-10.56,4.18s-6.82-9.24-7.82-17.28-3.07-9.07-3.07-9.07"/><path class="cls-20" d="M182,155.85s-13.63,13.63-15,22.32c0,0,.19,2.59,19.72,1.2h16.82l1.32-3.35a122.69,122.69,0,0,0-27.16-2.82c1.36-1.06,2.77-2.32,4.25-3.73a34.09,34.09,0,0,0,6.33-7.63Z"/><path class="cls-19" d="M199.11,143.82s-12.17-.61-25.83,20.88l9.67,6s8.34-7.9,10.72-15.64,5.44-11.21,5.44-11.21"/><rect class="cls-21" x="176.9" y="176.17" width="42.26" height="3.8"/><path class="cls-22" d="M316.71,271.63c-2.53,2.45-16.81,6.08-17.71,7.48a1.77,1.77,0,0,0-.15,1.68c.71,1.49,3.29.76,4.54.7,1.53-.07,17.8-.85,17.81-.79l.16.91,5.43-.25-.37-10s-4.17.16-9.72.24"/><path class="cls-23" d="M296.85,266.9c-2.22,2.74-16,8.05-16.69,9.55a1.76,1.76,0,0,0,.05,1.68c.89,1.39,3.36.36,4.59.15,1.51-.25,17.57-3,17.59-2.92l.27.88,5.37-.9-1.56-9.85s-4.12.66-9.63,1.41"/><path class="cls-24" d="M267.85,146.34,266,173.83c-.19,2.85-4.64,2.46-6.58,2.78-3,.5-6.93,1.63-9.26,3.75.84.45,2.5.28,3.49.33,1.27.07,2.54.12,3.8.16,2.6.09,5.2.14,7.81.25,0,0,7-.44,6.79-4.63s5.1-29.32,5.1-29.32Z"/><path class="cls-25" d="M263.14,152.58l15.51,2.3,2.6-21.26c.63-4.56.83-12-3.81-12.9l-1.12-.31c-5.21-.89-12.37,6.5-12.54,11.65Z"/><path class="cls-22" d="M301.07,168.23l-18,42.39a15.68,15.68,0,0,0-.73,10.2l13,47.47,11.28-1.14c-.68-7.44.32-31.06-3.81-38.61a12.79,12.79,0,0,1,.25-13l5.06-8.13,2.94-39Z"/><path class="cls-26" d="M319.29,160.07l-2.72-7.27s14.26,12.89,12.23,24.79c-1.76,10.27-4.78,33.58-5.58,39.77a7,7,0,0,0,.28,3l3.32,10.44a22.6,22.6,0,0,1,1.05,7.61l-1.11,33.34H315.22l-9.68-52.41a11.06,11.06,0,0,1-.18-1.82l-.89-49.75Z"/><path class="cls-27" d="M279.5,117.71c8.53,1.91,27.83,11.52,42.77,41.39,2,4-3.52,8.67-6.55,10.26a23.21,23.21,0,0,1-7.91,2.33,33.09,33.09,0,0,1-4.69.25c-.65,0-4.72.13-5-.41a61.09,61.09,0,0,0-4.45-7.67c-1.82-2.59-4-5.38-6.64-8.85a95.63,95.63,0,0,0-18.11-18.07,12.13,12.13,0,0,1-2.69-7,13.59,13.59,0,0,1,3.36-9.09,10,10,0,0,1,9.91-3.15"/><path class="cls-24" d="M249.72,111.45a1.46,1.46,0,0,0-.17-1.3c-1.08-1.6-3.4-6.35,3.06-11.11,0,0,11.63-7.29,16.78,4.22a9.22,9.22,0,0,1-.16,8.45c-.54,1,5.91,5.61,6.69,5.88s2.64,4.25-8,9.22c-.45-.72-.62-.77-1.35-1.78-2.3-3.18-5.15-4.71-7.67-3.72-1.17.46-3.27,2-4.54,1.33-.68-.35-2.1-3.48-2.49-3.81l-.2-.17a1.68,1.68,0,0,1-.6-1.26v-.79l-1.61-.69a1.24,1.24,0,0,1-.7-1.55Z"/><path class="cls-28" d="M262.71,110.93l1.32-.2a3.6,3.6,0,0,1-.51-1.91,1.29,1.29,0,0,1,1.36-1.18c.88.17,1,1.29,1.2,2.15a5.48,5.48,0,0,0,6.13,4.07,37.34,37.34,0,0,0-.25-9.5,12.83,12.83,0,0,0-4.79-8.06,14.26,14.26,0,0,0-8.64-2.22,23.89,23.89,0,0,0-9.29,2.14,10.17,10.17,0,0,0-3.6,2.48,4.61,4.61,0,0,0-1.12,4,5.1,5.1,0,0,0,4.26,3.35,15.51,15.51,0,0,0,5.74-.51c1.5-.32,4.31-1.31,5.49-.08.5.52,2.21,5.54,2.7,5.46"/><path class="cls-29" d="M211.15,180H176.48l-9.31-20a.66.66,0,0,1,.6-.93h31.29a3.68,3.68,0,0,1,3.34,2.13Z"/><polygon class="cls-30" points="276.4 184.24 81.24 184.24 82.81 179.92 274.83 179.92 276.4 184.24"/><path class="cls-20" d="M194.57,127.11s.67,15.1,5.33,15.73c5.72.77,9.69-2.11,10.65-7.2.38-2-.09-7.95-.62-11.68-.34-2.36-3.06-4.62-5.4-5a9.88,9.88,0,0,0-4.79.4,7,7,0,0,0-5.17,7.76"/><g class="cls-31"><rect class="cls-32" x="188.9" y="111.7" width="62.29" height="65.06"/></g><path class="cls-20" d="M202.44,139.87s-.17,3.8,0,5.45a5.07,5.07,0,0,0,5.45,2.48c3.74-.77,3.14-3.22,3.14-3.22l-.55-10.76Z"/><path class="cls-20" d="M212.52,133.7c-.29,1.29-1.2,2.18-2,2s-1.25-1.38-1-2.67,1.2-2.18,2-2,1.25,1.38,1,2.67"/><path class="cls-26" d="M210.61,131.34l-.56-.68-3.2,2.62a3.19,3.19,0,0,0-3-1.79,3.32,3.32,0,0,0-2.84,1.44,3.07,3.07,0,0,0-2.41,0l-.13.08a3.31,3.31,0,0,0-2.89-1.48,2.66,2.66,0,1,0,3.2,2.61.43.43,0,0,1,.24-.43,2.24,2.24,0,0,1,1.67.09,2.18,2.18,0,0,0,0,.33,3,3,0,0,0,3.2,2.61,3,3,0,0,0,3.17-2.4Zm-12.73,2.74c0,.95-1,1.72-2.31,1.72s-2.31-.77-2.31-1.72,1-1.72,2.31-1.72a2.29,2.29,0,0,1,2.26,1.34l.11,0a1.49,1.49,0,0,0-.05.41m6,1.72c-1.27,0-2.31-.77-2.31-1.72s1-1.72,2.31-1.72,2.31.77,2.31,1.72-1,1.72-2.31,1.72"/><path class="cls-33" d="M202.18,142.74l.27,2.58s3,4.2,6.22-3.47.39-2,.39-2-3,3.54-6.88,2.85"/><rect class="cls-34" x="244.84" y="184.09" width="4.72" height="97.61"/><polygon class="cls-35" points="77.7 251.96 74.89 261.99 68.84 260.22 71.94 250.04 77.7 251.96"/><path class="cls-22" d="M48.5,206.28l30.31,5.67a1.3,1.3,0,0,1,.66,2.05c-2.47,3.14-7.55,12.55-10.38,38.69l8.26,2.07,18.88-46.62,1.47-11.21Z"/><path class="cls-23" d="M120.92,231.89a40,40,0,0,1,12.38,11.78,4.3,4.3,0,0,1,.35,5.69,4.19,4.19,0,0,1-6.12.39A45.8,45.8,0,0,1,116.18,239a2.68,2.68,0,0,1-.75-2.64l1.07-4.07Z"/><path class="cls-35" d="M119.15,228.79l3.14,4.59a2.7,2.7,0,0,1-3.08,4.08l-.64-.21a2.7,2.7,0,0,1-1.55-1.33l-2.74-5.36Z"/><path class="cls-26" d="M41.65,184.34s-8.06,13.38-1.77,23.21,48.58-6.29,48.58-6.29,20.46,29.7,25.37,31.67c0,0,6.1,0,7.28-3.15,0,0-16.52-39.54-29.51-41.5l-31.67,1Z"/><polygon class="cls-36" points="39.98 281.31 33.29 281.31 41.16 214.04 47.85 214.04 39.98 281.31"/><polygon class="cls-36" points="77.75 281.31 84.43 281.31 76.57 214.04 69.88 214.04 77.75 281.31"/><rect class="cls-17" x="54.83" y="213.45" width="6.49" height="67.57"/><path class="cls-6" d="M80.6,217.78H38.9a4.65,4.65,0,0,1,0-9.25H80.6a4.65,4.65,0,0,1,0,9.25"/><path class="cls-23" d="M85,268.33l-6.42-7.61a18.91,18.91,0,0,0-.66-2c-.2-.5-.51-1.06-1-1.14a1.11,1.11,0,0,0-1.09.73,2.7,2.7,0,0,0-.17,1.22c-3.44-.1-6.5-3.19-6.5-3.19a12,12,0,0,0-3.06,5.39,1.41,1.41,0,0,0,.58,1.59l18.27,11.36.73-1.13a5,5,0,0,0-.63-5.27"/><polygon class="cls-29" points="124.76 153.56 129.77 154.44 120.33 179.82 115.02 179.67 124.76 153.56"/><path class="cls-37" d="M114.28,179.52c-3.41-8.26-11.15-6.69-15.49-5a7.42,7.42,0,0,1-3,.45c-1.58-.07-3.14-.11-4.71-.13-2.33,0-4.65,0-7,.05s-4.63.15-6.94.27l-3.21.19q-.87-1.58-1.69-3.17c-1-2-1.9-3.94-2.76-5.95s-1.65-4-2.36-6.1-1.39-4.14-2-6.24l0-.06a5.68,5.68,0,0,0-7.11-3.71,5.78,5.78,0,0,0-3.86,6.53,56.46,56.46,0,0,0,1.81,7.24A64.06,64.06,0,0,0,58.62,171a65.19,65.19,0,0,0,3.54,6.75,67.52,67.52,0,0,0,4.25,6.31l.27.36a5.08,5.08,0,0,0,4.92,2c2.28-.39,4.54-.88,6.8-1.32s4.52-1,6.78-1.5,4.51-1.11,6.75-1.72c1.61-.45,3.23-.93,4.83-1.43Z"/><path class="cls-27" d="M66.34,151.2,70.08,160a10.31,10.31,0,0,1-2.32,11.42L63.09,176l-2.76,13.47a32.12,32.12,0,0,1-21.43-3.73s5.61-11.8,5.31-21.54,3.84-21.24,15-18Z"/><path class="cls-35" d="M58.52,146.33s2.51,5.9,6.34,6.79l.38-7.72a3.32,3.32,0,0,1,4.27-3l1,.3a4,4,0,0,0,4.78-2.17l1-2.2A3.25,3.25,0,0,1,79,136.43a1.33,1.33,0,0,0,1.18-1.61l-.55-2.5,2.19-4.9a6.11,6.11,0,0,0,.13-4.67c-1.3-3.42-4.52-8.92-11.76-8.72-10.37.29-12.83,4.72-15,17.56Z"/><path class="cls-24" d="M270.28,132.32l-15.79,16a9.08,9.08,0,0,1-3.3,2.13L226,159.79a7.52,7.52,0,0,1-5.13,0l-3.09-1.09a7.52,7.52,0,0,0-3.7-.33l-12.56,2.34.16,1.39,10.44.15,1.62,2.86a5.39,5.39,0,0,0,6,2.51l35.89-9.1a12.23,12.23,0,0,0,4.79-2.43L278,141.57Z"/><path class="cls-38" d="M260.32,139.58l10.41,10.58,13.49-12.79a8.16,8.16,0,0,0,.52-11.43l-.17-.18a8.66,8.66,0,0,0-12.72.46Z"/><g class="cls-39"><rect class="cls-40" x="22.16" y="110.45" width="62.29" height="65.06"/></g><rect class="cls-21" x="95.35" y="175.68" width="24.19" height="4.13"/><path class="cls-35" d="M108.83,180.11c-3.41-8.26-11.15-6.69-15.49-5a7.42,7.42,0,0,1-3,.45c-1.58-.07-3.14-.11-4.71-.13-2.33,0-4.65,0-7,.05s-4.63.15-6.94.27l-3.21.19c-.58-1.05-1.14-2.11-1.69-3.17-1-2-1.9-3.94-2.76-5.95s-1.64-4-2.36-6.1-1.39-4.14-2-6.24l0-.06a5.68,5.68,0,0,0-7.12-3.71,5.79,5.79,0,0,0-3.86,6.53,56.65,56.65,0,0,0,1.81,7.24,66.91,66.91,0,0,0,6.29,13.87A67.32,67.32,0,0,0,61,184.65l.27.36a5.08,5.08,0,0,0,4.92,2c2.28-.39,4.54-.88,6.8-1.32s4.52-1,6.78-1.5,4.51-1.11,6.75-1.72c1.61-.45,3.23-.93,4.83-1.43Z"/><polygon class="cls-20" points="145.76 266.14 141.8 272.52 146.97 276.04 151.15 269.66 145.76 266.14"/><path class="cls-23" d="M143,272.47a20.45,20.45,0,0,0-15.26-3.77,1.11,1.11,0,0,0-.45,2l17.58,11s4-5,2.52-7a3.62,3.62,0,0,1-4.39-2.36"/><path class="cls-22" d="M179.32,203.26,143,268.08a59.93,59.93,0,0,0,7.39,5.94l22.11-33.23c4.08-2.7,8.41-5.39,8.41-5.39,8.51-5.57,26-23.77,26-23.77Z"/><polygon class="cls-20" points="180.11 267.71 182 277.11 188.17 277.11 186.27 267.05 180.11 267.71"/><path class="cls-26" d="M221.14,191.6l-50.94.17a11.23,11.23,0,0,0-10.84,14l18.5,63.52h9.72l-3.53-31.11a5.93,5.93,0,0,1,.1-1.87c3-14.46-6.15-23-6.15-23,5.23,2.24,13.7,3.25,21.72,3.68a20.61,20.61,0,0,0,21.63-20Z"/><path class="cls-23" d="M182.9,275.77s-8.24-.89-15.78,6.18a1,1,0,0,0,.71,1.65l22.19-.93s.46-6.67-2-7.47a3.78,3.78,0,0,1-5.17.57"/><rect class="cls-34" x="92.99" y="184.09" width="4.72" height="97.61"/></g></g></g></svg>