<?xml version="1.0" encoding="UTF-8" standalone="no"?>
<svg
   xmlns:dc="http://purl.org/dc/elements/1.1/"
   xmlns:cc="http://creativecommons.org/ns#"
   xmlns:rdf="http://www.w3.org/1999/02/22-rdf-syntax-ns#"
   xmlns:svg="http://www.w3.org/2000/svg"
   xmlns="http://www.w3.org/2000/svg"
   xmlns:sodipodi="http://sodipodi.sourceforge.net/DTD/sodipodi-0.dtd"
   xmlns:inkscape="http://www.inkscape.org/namespaces/inkscape"
   width="773.92969pt"
   height="773.92969pt"
   viewBox="0 0 773.92969 773.92972"
   version="1.2"
   id="svg12"
   sodipodi:docname="language_blue.svg"
   inkscape:version="0.92.5 (2060ec1f9f, 2020-04-08)">
  <metadata
     id="metadata16">
    <rdf:RDF>
      <cc:Work
         rdf:about="">
        <dc:format>image/svg+xml</dc:format>
        <dc:type
           rdf:resource="http://purl.org/dc/dcmitype/StillImage" />
        <dc:title></dc:title>
      </cc:Work>
    </rdf:RDF>
  </metadata>
  <sodipodi:namedview
     pagecolor="#ffffff"
     bordercolor="#666666"
     borderopacity="1"
     objecttolerance="10"
     gridtolerance="10"
     guidetolerance="10"
     inkscape:pageopacity="0"
     inkscape:pageshadow="2"
     inkscape:window-width="960"
     inkscape:window-height="1016"
     id="namedview14"
     showgrid="false"
     inkscape:zoom="0.12291668"
     inkscape:cx="512.04687"
     inkscape:cy="275.23965"
     inkscape:window-x="960"
     inkscape:window-y="27"
     inkscape:window-maximized="0"
     inkscape:current-layer="svg12" />
  <defs
     id="defs5">
    <clipPath
       id="clip1">
      <path
         d="M 20.964844,152.48047 H 794.96484 v 774 H 20.964844 Z m 0,0"
         id="path2"
         inkscape:connector-curvature="0" />
    </clipPath>
  </defs>
  <g
     id="surface1"
     transform="translate(-20.964844,-152.5)">
    <g
       clip-path="url(#clip1)"
       id="g9"
       style="clip-rule:nonzero">
      <path
         style="fill:#002863;fill-opacity:1;fill-rule:nonzero;stroke:none"
         d="m 559.98828,625.79687 c 2.39844,-28 3.67188,-56.89843 3.67188,-86.33984 0,-32.13281 -1.5,-63.66406 -4.35938,-94.04297 h 170.66016 c 8.74218,29.85938 13.51953,61.40625 13.51953,94.04297 0,29.85938 -3.98438,58.77734 -11.32813,86.33984 z m -63.32812,237.22266 c 9.49609,-15.83594 18.73828,-35.34766 27.39843,-59.40234 13.22657,-36.78907 23.34766,-79.75 30.06641,-126.40625 H 713.76953 C 672.99609,767.37109 593.5625,836.39453 496.66016,863.01953 Z m -88.74219,12 c -31.98438,0 -74.86328,-73.96875 -94.14453,-197.80859 h 188.3125 C 482.78516,801.05078 439.92969,875.01953 407.91797,875.01953 Z M 102.07031,677.21094 h 159.66406 c 6.69922,46.65625 16.81641,89.61718 30.06641,126.40625 8.66016,24.05468 17.90234,43.5664 27.39844,59.40234 C 222.29687,836.41797 142.84375,767.37109 102.07031,677.21094 Z M 72.378906,539.45703 c 0,-32.63672 4.777344,-64.18359 13.519532,-94.04297 H 256.53906 c -2.83594,30.37891 -4.33984,61.91016 -4.33984,94.04297 0,29.44141 1.27344,58.33984 3.65234,86.33984 H 83.6875 C 76.34375,598.23437 72.378906,569.31641 72.378906,539.45703 Z M 319.19922,215.91406 C 309.70312,231.75 300.46094,251.25781 291.80078,275.31641 279.30469,310.05859 269.55859,350.30859 262.86328,394 H 105.57422 c 41.7539,-86.42578 119.5,-152.23438 213.625,-178.08594 z m 88.71875,-12 c 31.32031,0 73.05078,70.92188 92.89453,190.08594 H 315.04687 c 19.84375,-119.16406 61.55469,-190.08594 92.8711,-190.08594 z M 512.25,539.45703 c 0,30.50391 -1.39844,59.32031 -3.88281,86.33984 H 307.47266 c -2.46094,-27.01953 -3.85938,-55.83593 -3.85938,-86.33984 0,-33.40625 1.66797,-64.83203 4.60938,-94.04297 h 199.41406 c 2.9414,29.21094 4.61328,60.63672 4.61328,94.04297 z M 710.26172,394 H 553 C 546.30078,350.30859 536.55859,310.05859 524.05859,275.31641 515.39844,251.25781 506.15625,231.75 496.66016,215.91406 590.78516,241.76562 668.53125,307.57422 710.26172,394 Z M 407.91797,152.5 c -213.3711,0 -386.953126,173.60547 -386.953126,386.95703 0,213.37109 173.582026,386.97266 386.953126,386.97266 213.375,0 386.97656,-173.60157 386.97656,-386.97266 C 794.89453,326.10547 621.29297,152.5 407.91797,152.5"
         id="path7"
         inkscape:connector-curvature="0" />
    </g>
  </g>
</svg>
