<?xml version="1.0" encoding="UTF-8"?>
<svg xmlns="http://www.w3.org/2000/svg" xmlns:xlink="http://www.w3.org/1999/xlink" width="37.5pt" height="37.499999pt" viewBox="0 0 37.5 37.499999" version="1.2">
<defs>
<clipPath id="clip1">
  <path d="M 0 0 L 37.007812 0 L 37.007812 37.007812 L 0 37.007812 Z M 0 0 "/>
</clipPath>
</defs>
<g id="surface1">
<g clip-path="url(#clip1)" clip-rule="nonzero">
<path style=" stroke:none;fill-rule:nonzero;fill:rgb(100%,100%,100%);fill-opacity:1;" d="M 18.75 0 C 8.394531 0 0 8.394531 0 18.75 C 0 29.105469 8.394531 37.5 18.75 37.5 C 29.105469 37.5 37.5 29.105469 37.5 18.75 C 37.5 8.394531 29.105469 0 18.75 0 Z M 11.710938 8.441406 C 13.027344 8.441406 13.90625 9.320312 13.90625 10.488281 C 13.90625 11.65625 13.027344 12.53125 11.566406 12.53125 C 10.25 12.535156 9.375 11.65625 9.375 10.488281 C 9.375 9.320312 10.25 8.441406 11.710938 8.441406 Z M 14.0625 26.5625 L 9.375 26.5625 L 9.375 14.0625 L 14.0625 14.0625 Z M 29.6875 26.5625 L 25.273438 26.5625 L 25.273438 19.730469 C 25.273438 17.84375 24.097656 17.40625 23.65625 17.40625 C 23.21875 17.40625 21.746094 17.695312 21.746094 19.730469 C 21.746094 20.023438 21.746094 26.5625 21.746094 26.5625 L 17.1875 26.5625 L 17.1875 14.0625 L 21.746094 14.0625 L 21.746094 15.804688 C 22.335938 14.789062 23.511719 14.0625 25.71875 14.0625 C 27.921875 14.0625 29.6875 15.804688 29.6875 19.730469 Z M 29.6875 26.5625 "/>
</g>
</g>
</svg>
