<?xml version="1.0" encoding="UTF-8"?>
<svg xmlns="http://www.w3.org/2000/svg" xmlns:xlink="http://www.w3.org/1999/xlink" width="1440pt" height="809.999993pt" viewBox="0 0 1440 809.999993" version="1.2">
<defs>
<clipPath id="clip1">
  <path d="M 199.242188 13 L 980.742188 13 L 980.742188 794.5 L 199.242188 794.5 Z M 199.242188 13 "/>
</clipPath>
</defs>
<g id="surface1">
<g clip-path="url(#clip1)" clip-rule="nonzero">
<path style=" stroke:none;fill-rule:nonzero;fill:rgb(49.01886%,54.508972%,56.469727%);fill-opacity:1;" d="M 589.992188 13 C 374.199219 13 199.242188 187.957031 199.242188 403.75 C 199.242188 619.539062 374.199219 794.5 589.992188 794.5 C 805.78125 794.5 980.742188 619.539062 980.742188 403.75 C 980.742188 187.957031 805.78125 13 589.992188 13 Z M 443.328125 188.933594 C 470.746094 188.933594 489.015625 207.203125 489.015625 231.558594 C 489.015625 255.914062 470.746094 274.183594 440.300781 274.183594 C 412.882812 274.214844 394.617188 255.914062 394.617188 231.558594 C 394.617188 207.203125 412.882812 188.933594 443.328125 188.933594 Z M 492.304688 566.5625 L 394.617188 566.5625 L 394.617188 306.0625 L 492.304688 306.0625 Z M 817.929688 566.5625 L 725.972656 566.5625 L 725.972656 424.199219 C 725.972656 384.828125 701.453125 375.746094 692.269531 375.746094 C 683.085938 375.746094 652.414062 381.800781 652.414062 424.199219 C 652.414062 430.253906 652.414062 566.5625 652.414062 566.5625 L 557.429688 566.5625 L 557.429688 306.0625 L 652.445312 306.0625 L 652.445312 342.402344 C 664.6875 321.203125 689.207031 306.0625 735.1875 306.0625 C 781.164062 306.0625 817.929688 342.402344 817.929688 424.199219 Z M 817.929688 566.5625 "/>
</g>
</g>
</svg>
