<svg id="n" xmlns="http://www.w3.org/2000/svg" viewBox="0 0 332.48 340.16"><defs><style>.cls-1{fill:#022b47;}.cls-2,.cls-3,.cls-4{fill:none;stroke-miterlimit:10;stroke-width:40px;}.cls-2{stroke:#043a66;}.cls-3{stroke:#f49538;}.cls-4{stroke:#2268af;}</style></defs><title>logo_blue-1</title><g id="g141"><polygon class="cls-1" points="225.92 120.26 225.92 226.39 215.78 237.16 137.01 153.98 137.01 241.31 126.93 241.31 108.56 221.78 108.56 110.6 117.56 101.02 197.99 180.62 197.99 100.31 207.14 100.31 225.92 120.26"/></g><path class="cls-2" d="M170,20.69c81.11,0,146.74,67.16,146.74,150.16" transform="translate(-4.26 -0.69)"/><path class="cls-2" d="M171,20.69c-81.11,0-146.74,67.16-146.74,150.16" transform="translate(-4.26 -0.69)"/><path class="cls-3" d="M300.45,102a149.79,149.79,0,0,1,16.28,68.87" transform="translate(-4.26 -0.69)"/><path class="cls-4" d="M99.28,39.78A148.66,148.66,0,0,0,54.4,79.61a151.48,151.48,0,0,0-26,55.45,154.4,154.4,0,0,0-4.18,35.78" transform="translate(-4.26 -0.69)"/><path class="cls-2" d="M171,320.85c-81.11,0-146.74-67.16-146.74-150.16" transform="translate(-4.26 -0.69)"/><path class="cls-2" d="M170,320.85c81.11,0,146.74-67.16,146.74-150.16" transform="translate(-4.26 -0.69)"/><path class="cls-3" d="M40.55,239.56a149.79,149.79,0,0,1-16.28-68.87" transform="translate(-4.26 -0.69)"/><path class="cls-4" d="M241.73,301.75a148.66,148.66,0,0,0,44.88-39.83,151.48,151.48,0,0,0,26-55.45,154.4,154.4,0,0,0,4.18-35.78" transform="translate(-4.26 -0.69)"/></svg>