<?xml version="1.0" encoding="UTF-8"?>
<svg xmlns="http://www.w3.org/2000/svg" xmlns:xlink="http://www.w3.org/1999/xlink" width="1440pt" height="809.999993pt" viewBox="0 0 1440 809.999993" version="1.2">
<defs>
<clipPath id="clip1">
  <path d="M 329.261719 31.359375 L 1076.261719 31.359375 L 1076.261719 778.355469 L 329.261719 778.355469 Z M 329.261719 31.359375 "/>
</clipPath>
</defs>
<g id="surface1">
<g clip-path="url(#clip1)" clip-rule="nonzero">
<path style=" stroke:none;fill-rule:nonzero;fill:rgb(49.01886%,54.508972%,56.469727%);fill-opacity:1;" d="M 702.761719 31.359375 C 496.5 31.359375 329.261719 198.59375 329.261719 404.855469 C 329.261719 611.121094 496.5 778.355469 702.761719 778.355469 C 909.027344 778.355469 1076.261719 611.121094 1076.261719 404.855469 C 1076.261719 198.59375 909.027344 31.359375 702.761719 31.359375 Z M 900 576.332031 L 870.089844 606.242188 C 864.757812 611.578125 849.117188 614.90625 848.617188 614.90625 C 754.007812 615.726562 662.914062 578.570312 595.984375 511.636719 C 528.871094 444.480469 491.667969 353.0625 492.667969 258.140625 C 492.667969 258.09375 496.089844 242.910156 501.421875 237.621094 L 531.332031 207.710938 C 542.273438 196.722656 563.292969 191.753906 578.019531 196.679688 L 584.3125 198.777344 C 598.992188 203.699219 614.402344 219.929688 618.460938 234.886719 L 633.507812 290.097656 C 637.566406 305.097656 632.09375 326.4375 621.152344 337.378906 L 601.179688 357.351562 C 620.785156 429.933594 677.730469 486.878906 750.316406 506.53125 L 770.285156 486.558594 C 781.273438 475.574219 802.609375 470.101562 817.566406 474.160156 L 872.78125 489.25 C 887.734375 493.355469 903.964844 508.675781 908.890625 523.355469 L 910.988281 529.738281 C 915.867188 544.417969 910.941406 565.4375 900 576.332031 Z M 900 576.332031 "/>
</g>
</g>
</svg>
