<?xml version="1.0" encoding="UTF-8" standalone="no"?>
<svg
   xmlns:dc="http://purl.org/dc/elements/1.1/"
   xmlns:cc="http://creativecommons.org/ns#"
   xmlns:rdf="http://www.w3.org/1999/02/22-rdf-syntax-ns#"
   xmlns:svg="http://www.w3.org/2000/svg"
   xmlns="http://www.w3.org/2000/svg"
   xmlns:sodipodi="http://sodipodi.sourceforge.net/DTD/sodipodi-0.dtd"
   xmlns:inkscape="http://www.inkscape.org/namespaces/inkscape"
   width="730.14337pt"
   height="730.41681pt"
   viewBox="0 0 730.14337 730.41684"
   version="1.2"
   id="svg5"
   sodipodi:docname="phone_blue.svg"
   inkscape:version="0.92.5 (2060ec1f9f, 2020-04-08)">
  <metadata
     id="metadata11">
    <rdf:RDF>
      <cc:Work
         rdf:about="">
        <dc:format>image/svg+xml</dc:format>
        <dc:type
           rdf:resource="http://purl.org/dc/dcmitype/StillImage" />
        <dc:title></dc:title>
      </cc:Work>
    </rdf:RDF>
  </metadata>
  <defs
     id="defs9" />
  <sodipodi:namedview
     pagecolor="#ffffff"
     bordercolor="#666666"
     borderopacity="1"
     objecttolerance="10"
     gridtolerance="10"
     guidetolerance="10"
     inkscape:pageopacity="0"
     inkscape:pageshadow="2"
     inkscape:window-width="960"
     inkscape:window-height="1016"
     id="namedview7"
     showgrid="false"
     inkscape:zoom="0.12291668"
     inkscape:cx="491.13396"
     inkscape:cy="248.79547"
     inkscape:window-x="960"
     inkscape:window-y="27"
     inkscape:window-maximized="0"
     inkscape:current-layer="svg5" />
  <g
     id="surface1"
     transform="translate(-36.649531,-176.17972)">
    <path
       style="fill:#002863;fill-opacity:1;fill-rule:nonzero;stroke:none"
       d="M 659.99609,283.15625 C 583.89844,207.04297 480.09766,168.64062 371.10547,177.41016 224.57812,189.17578 96.140625,291.04687 53.15625,431.57812 22.457031,531.98828 35.359375,636.82031 85.359375,723.41797 L 37.988281,880.64844 c -4.53125,15.08984 9.246094,29.30468 24.488281,25.24609 L 227.09766,861.79297 c 53.32812,29.08594 113.34375,44.39453 174.45312,44.43359 h 0.14844 c 153.32422,0 294.99219,-93.76172 344.00781,-239.00781 47.73438,-141.625 12.42578,-285.84766 -85.71094,-384.0625 z m -79.64062,388.26562 c -7.60547,21.30469 -44.84766,41.83985 -61.58985,43.33594 -16.73828,1.53516 -32.41796,7.5625 -109.46484,-22.80078 -92.72656,-36.53906 -151.28125,-131.57812 -155.8125,-137.64453 -4.57031,-6.10156 -37.24609,-49.4375 -37.24609,-94.30859 0,-44.86719 23.57422,-66.9375 31.94531,-76.03516 8.37109,-9.13672 18.23828,-11.40234 24.34375,-11.40234 6.06641,0 12.17187,0 17.46875,0.21875 6.50781,0.25781 13.70703,0.58593 20.54297,15.75 8.11328,18.05078 25.83984,63.14062 28.10547,67.70703 2.26562,4.5664 3.80078,9.90234 0.76953,15.96875 -3.03516,6.0625 -4.57031,9.86328 -9.10156,15.19922 -4.57032,5.33593 -9.57813,11.875 -13.67188,15.96875 -4.56641,4.53125 -9.32031,9.5 -4.01953,18.59765 5.33594,9.13281 23.61328,38.98828 50.73047,63.14063 34.87109,31.05859 64.21875,40.66797 73.35547,45.27343 9.14062,4.56641 14.4375,3.79688 19.77734,-2.30468 5.33594,-6.06641 22.80469,-26.60157 28.87109,-35.73438 6.07032,-9.13672 12.17188,-7.60156 20.54297,-4.5664 8.3711,3.03125 53.21485,25.10156 62.31641,29.66796 9.13672,4.56641 15.20703,6.83204 17.47266,10.63282 2.26562,3.76562 2.26562,22.03515 -5.33594,43.33593 z m 0,0"
       id="path2"
       inkscape:connector-curvature="0" />
  </g>
</svg>
