<svg id="pag5_top_blue_right_copia" data-name="pag5 top blue right copia" xmlns="http://www.w3.org/2000/svg" xmlns:xlink="http://www.w3.org/1999/xlink" viewBox="0 0 706 1399"><defs><style>.cls-1{opacity:0.15;fill:url(#Degradado_sin_nombre_25);}</style><linearGradient id="Degradado_sin_nombre_25" x1="-70.5" y1="-225.19" x2="283.74" y2="-843.41" gradientTransform="translate(256.35 751.71) rotate(-179.81)" gradientUnits="userSpaceOnUse"><stop offset="0.21" stop-color="#fff"/><stop offset="1" stop-color="#5173c1"/></linearGradient></defs><title>fondo general.separados</title><g id="Capa_18_copia" data-name="Capa 18 copia"><path class="cls-1" d="M519.93,1568.4c-1.52,1.5-12.86,12.38-24.24,22.92-8,7.4-12,11.48-17.55,15.71-4.1,3.14-8.08,6.47-12.05,9.77a366.59,366.59,0,0,1-31.29,23,389.73,389.73,0,0,1-59,32.26,345.61,345.61,0,0,1-85.46,25.22c-7.61,1.21-15.28,1.91-22.92,2.85-1.5.54-3.16-.18-4.65,0.49h0l-5,.17h0c-4.05.71-8.2-.44-12.23,0.66l-17.62-.29c-1.47-.59-3.1.06-4.58-0.47-24.38-2.62-47.62-9.37-70.59-17.22a713.15,713.15,0,0,1-70.5-28.86q-33.67-15.69-66-33.8c-30.28-17-59.8-35.09-88.17-54.83-20.85-14.51-41.16-29.65-60.45-46-0.44-.37-0.94-0.69-1.42-1a0.12,0.12,0,0,1-.05-0.1c0-9.37,0-28,0-28v-1.66a0.13,0.13,0,0,1,.13-0.13l0.38-36.94,2-612.49s-0.1-.27,1.1-0.75A413,413,0,0,1-67,825c3.62-.53,7.25-1,10.88-1.53,1.23-.57,2.67.15,3.88-0.54l3.63-.18c1.25-.51,2.66.16,3.89-0.51l3.61-.17c2-.6,4.21.22,6.24-0.49l5.76-.17a158.09,158.09,0,0,1,18.69,0L2.9,821.7c1.25,0.62,2.67,0,3.94.5l5,0.24c1.27,0.6,2.71,0,4,.52A256.94,256.94,0,0,1,62,832.12a218.09,218.09,0,0,1,58,26.26c7.16,4.61,13.71,10,20.38,15.23,0,0,9.65,8.1,17,15.8,18.85,19.65,26.82,60.51,28.24,68.07a447.42,447.42,0,0,1,6.65,107c-0.31,32.65,3.94,93.08,40.5,153.13a276.22,276.22,0,0,0,48.81,59.16c105.38,96.83,215.54,47.82,259.61,119.85C578.43,1457.58,536.12,1552.35,519.93,1568.4Z"/></g></svg>