<?xml version="1.0" encoding="UTF-8" standalone="no"?>
<svg
   xmlns:dc="http://purl.org/dc/elements/1.1/"
   xmlns:cc="http://creativecommons.org/ns#"
   xmlns:rdf="http://www.w3.org/1999/02/22-rdf-syntax-ns#"
   xmlns:svg="http://www.w3.org/2000/svg"
   xmlns="http://www.w3.org/2000/svg"
   xmlns:sodipodi="http://sodipodi.sourceforge.net/DTD/sodipodi-0.dtd"
   xmlns:inkscape="http://www.inkscape.org/namespaces/inkscape"
   width="761.25pt"
   height="761.25pt"
   viewBox="0 0 761.25 761.25003"
   version="1.2"
   id="svg12"
   sodipodi:docname="user_blue.svg"
   inkscape:version="0.92.5 (2060ec1f9f, 2020-04-08)">
  <metadata
     id="metadata16">
    <rdf:RDF>
      <cc:Work
         rdf:about="">
        <dc:format>image/svg+xml</dc:format>
        <dc:type
           rdf:resource="http://purl.org/dc/dcmitype/StillImage" />
        <dc:title></dc:title>
      </cc:Work>
    </rdf:RDF>
  </metadata>
  <sodipodi:namedview
     pagecolor="#ffffff"
     bordercolor="#666666"
     borderopacity="1"
     objecttolerance="10"
     gridtolerance="10"
     guidetolerance="10"
     inkscape:pageopacity="0"
     inkscape:pageshadow="2"
     inkscape:window-width="960"
     inkscape:window-height="1016"
     id="namedview14"
     showgrid="false"
     inkscape:zoom="0.12291668"
     inkscape:cx="507.63021"
     inkscape:cy="243.3959"
     inkscape:window-x="960"
     inkscape:window-y="27"
     inkscape:window-maximized="0"
     inkscape:current-layer="svg12" />
  <defs
     id="defs5">
    <clipPath
       id="clip1">
      <path
         d="M 24.277344,141.29687 H 785.52734 v 761.25 H 24.277344 Z m 0,0"
         id="path2"
         inkscape:connector-curvature="0" />
    </clipPath>
  </defs>
  <g
     id="surface1"
     transform="translate(-24.277344,-141.29687)">
    <g
       clip-path="url(#clip1)"
       id="g9"
       style="clip-rule:nonzero">
      <path
         style="fill:#002863;fill-opacity:1;fill-rule:nonzero;stroke:none"
         d="m 404.90234,141.29687 c -209.86718,0 -380.624996,170.75782 -380.624996,380.625 0,112.46094 49.070312,213.66016 126.874996,283.39063 v 0.26953 l 5.51953,4.75781 c 0.96875,0.84375 2.03125,1.53907 3.01563,2.36328 6.83203,5.77344 13.875,11.3086 21.10547,16.60547 1.95312,1.42969 3.90234,2.8086 5.88672,4.1875 7.67578,5.39063 15.52343,10.53125 23.58203,15.35157 1.34765,0.80859 2.72656,1.57031 4.07422,2.34765 8.83593,5.13672 17.85937,9.97656 27.12109,14.39844 0.0937,0.0508 0.19141,0.082 0.28516,0.12891 19.80859,9.4375 40.58203,17.16015 62.08984,23.08984 0.39453,0.11328 0.79297,0.23828 1.1875,0.33594 10.16797,2.77343 20.50781,5.10547 30.99219,7.02343 0.98047,0.17579 1.94922,0.34766 2.93359,0.52344 10.11719,1.77735 20.36328,3.1875 30.75,4.15625 1.19141,0.10938 2.37891,0.17188 3.55078,0.26953 10.45313,0.8711 20.98438,1.42578 31.65625,1.42578 10.67578,0 21.20313,-0.55468 31.65625,-1.42578 1.1875,-0.0976 2.37891,-0.16015 3.55078,-0.26953 10.39063,-0.95312 20.63672,-2.3789 30.75391,-4.15625 0.98047,-0.17578 1.94922,-0.34765 2.93359,-0.52344 10.48438,-1.91796 20.82422,-4.25 30.98829,-7.02343 0.39843,-0.11328 0.79296,-0.22266 1.1914,-0.33594 21.50391,-5.92969 42.28125,-13.65234 62.08985,-23.08984 0.0937,-0.0469 0.1875,-0.0781 0.28515,-0.12891 9.26172,-4.42188 18.28516,-9.27734 27.11719,-14.39844 1.36328,-0.79297 2.73047,-1.53906 4.07812,-2.34765 8.07032,-4.82032 15.92188,-9.97657 23.58204,-15.35157 1.96484,-1.3789 3.93359,-2.75781 5.88281,-4.1875 7.23047,-5.29687 14.27344,-10.83203 21.10937,-16.60547 0.98438,-0.82421 2.04688,-1.51953 3.01172,-2.36328 l 5.51953,-4.75781 v -0.26953 c 77.8086,-69.74609 126.875,-170.92969 126.875,-283.39063 0,-209.86718 -170.75781,-380.625 -380.625,-380.625 z m 0,380.625 c -69.95312,0 -126.875,-56.91796 -126.875,-126.875 0,-69.95312 56.92188,-126.875 126.875,-126.875 69.95703,0 126.875,56.92188 126.875,126.875 0,69.95704 -56.91797,126.875 -126.875,126.875 z m 47.57813,31.71875 c 96.1875,0 174.45312,78.26563 174.45312,174.45313 v 62.77344 c -0.66406,0.55468 -1.36328,1.0625 -2.02734,1.61718 -6.26563,5.08985 -12.6875,9.92579 -19.25391,14.5586 -1.46093,1.03125 -2.88672,2.09375 -4.34765,3.09375 -7.08985,4.83594 -14.36719,9.37109 -21.77344,13.66797 -1.34766,0.79297 -2.71094,1.57031 -4.07813,2.34765 -7.76953,4.36328 -15.68359,8.45313 -23.7539,12.19532 -0.84375,0.39843 -1.69922,0.77734 -2.55469,1.16015 -26.34375,11.97266 -54.09766,20.64844 -82.66016,25.78516 -0.90234,0.16015 -1.80859,0.33594 -2.71093,0.49219 -8.99219,1.53906 -18.0625,2.72656 -27.19922,3.57031 -1.25391,0.10937 -2.51953,0.1875 -3.78906,0.28515 -9.2461,0.71094 -18.53907,1.1875 -27.88282,1.1875 -9.33984,0 -18.63281,-0.47656 -27.8789,-1.21875 -1.25391,-0.0977 -2.52344,-0.17578 -3.79297,-0.28515 -9.13281,-0.84375 -18.20313,-2.01563 -27.19531,-3.57031 -0.90625,-0.16016 -1.8086,-0.31641 -2.71485,-0.49219 -28.5625,-5.13672 -56.3164,-13.8125 -82.65625,-25.78516 -0.85937,-0.39844 -1.71484,-0.76172 -2.55469,-1.16015 -8.07421,-3.74219 -15.98828,-7.83204 -23.75781,-12.19532 -1.36328,-0.77734 -2.71094,-1.55468 -4.07422,-2.34765 -7.40625,-4.28125 -14.6875,-8.83203 -21.77734,-13.66797 -1.47266,-1 -2.90234,-2.0625 -4.34375,-3.09375 -6.56641,-4.63281 -12.98828,-9.45313 -19.25391,-14.5586 -0.66797,-0.53906 -1.36328,-1.0625 -2.03125,-1.61718 v -62.74219 c 0,-96.1875 78.26563,-174.45313 174.45313,-174.45313 z m 206.17187,207.37891 v -32.92578 c 0,-99.45313 -70.79687,-182.68359 -164.62109,-201.96875 41.88672,-28.5625 69.46484,-76.66406 69.46484,-131.07813 0,-87.44921 -71.14453,-158.59375 -158.59375,-158.59375 -87.44922,0 -158.59375,71.14454 -158.59375,158.59375 0,54.41407 27.58203,102.51563 69.46485,131.07813 -93.82422,19.28516 -164.6211,102.51562 -164.6211,201.96875 v 32.92578 C 92.21875,698.51562 55.996094,614.39844 55.996094,521.92187 c 0,-192.39062 156.515626,-348.90625 348.906246,-348.90625 192.39063,0 348.90625,156.51563 348.90625,348.90625 0,92.47657 -36.22265,176.59375 -95.15625,239.09766 z m 0,0"
         id="path7"
         inkscape:connector-curvature="0" />
    </g>
  </g>
</svg>
