<?xml version="1.0" encoding="UTF-8"?>
<svg xmlns="http://www.w3.org/2000/svg" xmlns:xlink="http://www.w3.org/1999/xlink" width="810pt" height="809.999993pt" viewBox="0 0 810 809.999993" version="1.2">
<defs>
<filter id="alpha" filterUnits="objectBoundingBox" x="0%" y="0%" width="100%" height="100%">
  <feColorMatrix type="matrix" in="SourceGraphic" values="0 0 0 0 1 0 0 0 0 1 0 0 0 0 1 0 0 0 1 0"/>
</filter>
<mask id="mask0">
  <g filter="url(#alpha)">
<rect x="0" y="0" width="810" height="809.999993" style="fill:rgb(0%,0%,0%);fill-opacity:0.1765;stroke:none;"/>
  </g>
</mask>
<clipPath id="clip1">
  <rect x="0" y="0" width="776" height="805"/>
</clipPath>
<g id="surface5" clip-path="url(#clip1)">
<path style=" stroke:none;fill-rule:nonzero;fill:rgb(100%,54.899597%,0%);fill-opacity:1;" d="M 769.371094 384.746094 C 754 304.011719 709.179688 233.144531 657.890625 170.203125 C 612.585938 114.707031 558.867188 65.035156 493.984375 33.484375 C 462.597656 18.117188 427.160156 4.039062 392.050781 2.097656 C 357.101562 0.15625 321.828125 7.113281 289.792969 21.191406 C 257.269531 35.265625 227.660156 57.269531 205.496094 84.777344 C 180.253906 115.839844 166.175781 153.214844 151.453125 190.105469 C 118.121094 273.914062 66.992188 348.988281 33.015625 432.800781 C 2.917969 506.902344 -11.804688 591.359375 18.9375 668.050781 C 48.386719 741.183594 116.988281 783.25 192.386719 797.488281 C 278.628906 813.507812 367.78125 796.03125 448.035156 762.863281 C 488.324219 746.359375 526.832031 725.8125 564.371094 703.648438 C 601.421875 681.640625 638.636719 659.152344 673.261719 633.589844 C 704.652344 610.453125 732.15625 583.109375 749.46875 547.835938 C 765.972656 514.34375 773.902344 476.808594 774.226562 439.433594 C 774.386719 420.828125 772.445312 402.542969 769.371094 384.746094 "/>
</g>
</defs>
<g id="surface1">
<use xlink:href="#surface5" transform="matrix(1,0,0,1,17,1)" mask="url(#mask0)"/>
</g>
</svg>
